<svg width="15" height="17" viewBox="0 0 15 17" fill="none" xmlns="http://www.w3.org/2000/svg">
<path d="M13.919 0.372112C13.8191 0.257894 13.7005 0.167278 13.5698 0.105451C13.4392 0.0436235 13.2992 0.0117987 13.1578 0.0117987C13.0164 0.0117987 12.8764 0.0436235 12.7458 0.105451C12.6152 0.167278 12.4965 0.257894 12.3967 0.372112L7.11713 6.38464L1.8376 0.359791C1.73764 0.245723 1.61898 0.155239 1.48838 0.0935063C1.35778 0.0317733 1.2178 1.2019e-09 1.07644 0C0.935081 -1.2019e-09 0.795105 0.0317733 0.664505 0.0935063C0.533905 0.155239 0.415239 0.245723 0.315282 0.359791C0.215325 0.473859 0.136035 0.609277 0.0819389 0.758314C0.0278427 0.907351 -1.05322e-09 1.06709 0 1.2284C1.05322e-09 1.38972 0.0278427 1.54946 0.0819389 1.69849C0.136035 1.84753 0.215325 1.98295 0.315282 2.09702L5.59481 8.12186L0.315282 14.1467C0.215325 14.2608 0.136035 14.3962 0.0819389 14.5452C0.0278427 14.6943 0 14.854 0 15.0153C0 15.1766 0.0278427 15.3364 0.0819389 15.4854C0.136035 15.6344 0.215325 15.7699 0.315282 15.8839C0.415239 15.998 0.533905 16.0885 0.664505 16.1502C0.795105 16.212 0.935081 16.2437 1.07644 16.2437C1.2178 16.2437 1.35778 16.212 1.48838 16.1502C1.61898 16.0885 1.73764 15.998 1.8376 15.8839L7.11713 9.85909L12.3967 15.8839C12.4966 15.998 12.6153 16.0885 12.7459 16.1502C12.8765 16.212 13.0165 16.2437 13.1578 16.2437C13.2992 16.2437 13.4392 16.212 13.5698 16.1502C13.7004 16.0885 13.819 15.998 13.919 15.8839C14.0189 15.7699 14.0982 15.6344 14.1523 15.4854C14.2064 15.3364 14.2343 15.1766 14.2343 15.0153C14.2343 14.854 14.2064 14.6943 14.1523 14.5452C14.0982 14.3962 14.0189 14.2608 13.919 14.1467L8.63945 8.12186L13.919 2.09702C14.3292 1.62883 14.3292 0.8403 13.919 0.372112Z" fill="#535050" fill-opacity="0.95"/>
</svg>
