<svg width="28" height="31" viewBox="0 0 28 31" fill="none" xmlns="http://www.w3.org/2000/svg">
<path d="M21.4515 22.4427C21.4515 22.8489 21.3149 23.2384 21.0718 23.5257C20.8286 23.8129 20.4989 23.9742 20.155 23.9742C19.8112 23.9742 19.4814 23.8129 19.2382 23.5257C18.9951 23.2384 18.8585 22.8489 18.8585 22.4427C18.8585 22.0365 18.9951 21.647 19.2382 21.3598C19.4814 21.0726 19.8112 20.9112 20.155 20.9112C20.4989 20.9112 20.8286 21.0726 21.0718 21.3598C21.3149 21.647 21.4515 22.0365 21.4515 22.4427Z" fill="black"/>
<path d="M21.4515 16.3167C21.4515 16.7229 21.3149 17.1124 21.0718 17.3996C20.8286 17.6868 20.4989 17.8482 20.155 17.8482C19.8112 17.8482 19.4814 17.6868 19.2382 17.3996C18.9951 17.1124 18.8585 16.7229 18.8585 16.3167C18.8585 15.9105 18.9951 15.5209 19.2382 15.2337C19.4814 14.9465 19.8112 14.7852 20.155 14.7852C20.4989 14.7852 20.8286 14.9465 21.0718 15.2337C21.3149 15.5209 21.4515 15.9105 21.4515 16.3167Z" fill="black"/>
<path d="M14.969 16.3167C14.969 16.7229 14.8324 17.1124 14.5893 17.3996C14.3462 17.6868 14.0164 17.8482 13.6725 17.8482C13.3287 17.8482 12.9989 17.6868 12.7558 17.3996C12.5126 17.1124 12.376 16.7229 12.376 16.3167C12.376 15.9105 12.5126 15.5209 12.7558 15.2337C12.9989 14.9465 13.3287 14.7852 13.6725 14.7852C14.0164 14.7852 14.3462 14.9465 14.5893 15.2337C14.8324 15.5209 14.969 15.9105 14.969 16.3167Z" fill="black"/>
<path d="M8.48655 16.3167C8.48655 16.7229 8.34995 17.1124 8.10681 17.3996C7.86367 17.6868 7.5339 17.8482 7.19005 17.8482C6.8462 17.8482 6.51643 17.6868 6.27329 17.3996C6.03015 17.1124 5.89355 16.7229 5.89355 16.3167C5.89355 15.9105 6.03015 15.5209 6.27329 15.2337C6.51643 14.9465 6.8462 14.7852 7.19005 14.7852C7.5339 14.7852 7.86367 14.9465 8.10681 15.2337C8.34995 15.5209 8.48655 15.9105 8.48655 16.3167Z" fill="black"/>
<path d="M8.48655 22.4427C8.48655 22.8489 8.34995 23.2384 8.10681 23.5257C7.86367 23.8129 7.5339 23.9742 7.19005 23.9742C6.8462 23.9742 6.51643 23.8129 6.27329 23.5257C6.03015 23.2384 5.89355 22.8489 5.89355 22.4427C5.89355 22.0365 6.03015 21.647 6.27329 21.3598C6.51643 21.0726 6.8462 20.9112 7.19005 20.9112C7.5339 20.9112 7.86367 21.0726 8.10681 21.3598C8.34995 21.647 8.48655 22.0365 8.48655 22.4427Z" fill="black"/>
<path d="M14.969 22.4427C14.969 22.8489 14.8324 23.2384 14.5893 23.5257C14.3462 23.8129 14.0164 23.9742 13.6725 23.9742C13.3287 23.9742 12.9989 23.8129 12.7558 23.5257C12.5126 23.2384 12.376 22.8489 12.376 22.4427C12.376 22.0365 12.5126 21.647 12.7558 21.3598C12.9989 21.0726 13.3287 20.9112 13.6725 20.9112C14.0164 20.9112 14.3462 21.0726 14.5893 21.3598C14.8324 21.647 14.969 22.0365 14.969 22.4427Z" fill="black"/>
<path d="M7.1897 2.53555V0.238281M20.1547 2.53555V0.238281M1.35547 10.1931H25.9889M0.708008 14.7912C0.708008 9.01583 0.708008 6.1274 2.2275 4.33399C3.74699 2.54059 6.19089 2.53906 11.08 2.53906H16.266C21.155 2.53906 23.6002 2.53906 25.1184 4.33399C26.6366 6.12893 26.6379 9.01583 26.6379 14.7912V17.8542C26.6379 23.6295 26.6379 26.518 25.1184 28.3114C23.5989 30.1048 21.155 30.1063 16.266 30.1063H11.08C6.19089 30.1063 3.7457 30.1063 2.2275 28.3114C0.709304 26.5164 0.708008 23.6295 0.708008 17.8542V14.7912ZM21.4515 22.4427C21.4515 22.8489 21.3149 23.2384 21.0718 23.5257C20.8286 23.8129 20.4989 23.9742 20.155 23.9742C19.8112 23.9742 19.4814 23.8129 19.2382 23.5257C18.9951 23.2384 18.8585 22.8489 18.8585 22.4427C18.8585 22.0365 18.9951 21.647 19.2382 21.3598C19.4814 21.0726 19.8112 20.9112 20.155 20.9112C20.4989 20.9112 20.8286 21.0726 21.0718 21.3598C21.3149 21.647 21.4515 22.0365 21.4515 22.4427ZM21.4515 16.3167C21.4515 16.7229 21.3149 17.1124 21.0718 17.3996C20.8286 17.6868 20.4989 17.8482 20.155 17.8482C19.8112 17.8482 19.4814 17.6868 19.2382 17.3996C18.9951 17.1124 18.8585 16.7229 18.8585 16.3167C18.8585 15.9105 18.9951 15.5209 19.2382 15.2337C19.4814 14.9465 19.8112 14.7852 20.155 14.7852C20.4989 14.7852 20.8286 14.9465 21.0718 15.2337C21.3149 15.5209 21.4515 15.9105 21.4515 16.3167ZM14.969 22.4427C14.969 22.8489 14.8324 23.2384 14.5893 23.5257C14.3462 23.8129 14.0164 23.9742 13.6725 23.9742C13.3287 23.9742 12.9989 23.8129 12.7558 23.5257C12.5126 23.2384 12.376 22.8489 12.376 22.4427C12.376 22.0365 12.5126 21.647 12.7558 21.3598C12.9989 21.0726 13.3287 20.9112 13.6725 20.9112C14.0164 20.9112 14.3462 21.0726 14.5893 21.3598C14.8324 21.647 14.969 22.0365 14.969 22.4427ZM14.969 16.3167C14.969 16.7229 14.8324 17.1124 14.5893 17.3996C14.3462 17.6868 14.0164 17.8482 13.6725 17.8482C13.3287 17.8482 12.9989 17.6868 12.7558 17.3996C12.5126 17.1124 12.376 16.7229 12.376 16.3167C12.376 15.9105 12.5126 15.5209 12.7558 15.2337C12.9989 14.9465 13.3287 14.7852 13.6725 14.7852C14.0164 14.7852 14.3462 14.9465 14.5893 15.2337C14.8324 15.5209 14.969 15.9105 14.969 16.3167ZM8.48655 22.4427C8.48655 22.8489 8.34995 23.2384 8.10681 23.5257C7.86367 23.8129 7.5339 23.9742 7.19005 23.9742C6.8462 23.9742 6.51643 23.8129 6.27329 23.5257C6.03015 23.2384 5.89355 22.8489 5.89355 22.4427C5.89355 22.0365 6.03015 21.647 6.27329 21.3598C6.51643 21.0726 6.8462 20.9112 7.19005 20.9112C7.5339 20.9112 7.86367 21.0726 8.10681 21.3598C8.34995 21.647 8.48655 22.0365 8.48655 22.4427ZM8.48655 16.3167C8.48655 16.7229 8.34995 17.1124 8.10681 17.3996C7.86367 17.6868 7.5339 17.8482 7.19005 17.8482C6.8462 17.8482 6.51643 17.6868 6.27329 17.3996C6.03015 17.1124 5.89355 16.7229 5.89355 16.3167C5.89355 15.9105 6.03015 15.5209 6.27329 15.2337C6.51643 14.9465 6.8462 14.7852 7.19005 14.7852C7.5339 14.7852 7.86367 14.9465 8.10681 15.2337C8.34995 15.5209 8.48655 15.9105 8.48655 16.3167Z" stroke="black"/>
</svg>
