<svg width="25" height="25" viewBox="0 0 25 25" fill="none" xmlns="http://www.w3.org/2000/svg">
<path fill-rule="evenodd" clip-rule="evenodd" d="M12.5 24.9982C19.4036 24.9982 25 19.4021 25 12.4991C25 5.59603 19.4036 0 12.5 0C5.59644 0 0 5.59603 0 12.4991C0 19.4021 5.59644 24.9982 12.5 24.9982ZM18.3002 7.29313C18.7002 6.901 19.3002 6.901 19.7002 7.29313C20.1002 7.68526 20.1002 8.27345 19.7002 8.66558L11.5002 16.7042C11.3002 16.9003 11.1002 16.9983 10.8002 16.9983C10.5002 16.9983 10.3002 16.9003 10.1002 16.7042L6.30025 12.979C5.90025 12.5869 5.90025 11.9987 6.30025 11.6065C6.70025 11.2144 7.30025 11.2144 7.70025 11.6065L10.8002 14.6455L18.3002 7.29313Z" fill="#3A99D6"/>
<path d="M19.7002 7.29313C19.3002 6.901 18.7002 6.901 18.3002 7.29313L10.8002 14.6455L7.70025 11.6065C7.30025 11.2144 6.70025 11.2144 6.30025 11.6065C5.90025 11.9987 5.90025 12.5869 6.30025 12.979L10.1002 16.7042C10.3002 16.9003 10.5002 16.9983 10.8002 16.9983C11.1002 16.9983 11.3002 16.9003 11.5002 16.7042L19.7002 8.66558C20.1002 8.27345 20.1002 7.68526 19.7002 7.29313Z" fill="white"/>
</svg>
