<svg width="20" height="20" viewBox="0 0 20 20" fill="none" xmlns="http://www.w3.org/2000/svg">
<path d="M10.0002 2.49885e-09C7.62568 -5.30572e-05 5.32858 0.844883 3.52001 2.38361C1.71145 3.92233 0.509451 6.05442 0.129123 8.39833C-0.251205 10.7422 0.214956 13.145 1.44419 15.1766C2.67342 17.2083 4.58549 18.7362 6.83825 19.487C7.33825 19.575 7.52525 19.275 7.52525 19.012C7.52525 18.775 7.51325 17.987 7.51325 17.15C5.00025 17.612 4.35025 16.537 4.15025 15.975C3.92825 15.4278 3.57646 14.9429 3.12525 14.562C2.77525 14.375 2.27525 13.912 3.11225 13.9C3.43215 13.9345 3.739 14.0457 4.00675 14.2242C4.2745 14.4026 4.49524 14.643 4.65025 14.925C4.78698 15.1707 4.97084 15.387 5.19131 15.5614C5.41178 15.7359 5.66451 15.8652 5.93503 15.9418C6.20554 16.0185 6.48852 16.041 6.76775 16.0081C7.04698 15.9752 7.31697 15.8875 7.56225 15.75C7.6052 15.2413 7.83201 14.7656 8.20024 14.412C5.97524 14.162 3.65025 13.3 3.65025 9.475C3.63689 8.48112 4.00353 7.51965 4.67525 6.787C4.37016 5.92312 4.40593 4.97543 4.77525 4.137C4.77525 4.137 5.61225 3.875 7.52525 5.162C9.16155 4.7121 10.8889 4.7121 12.5252 5.162C14.4372 3.862 15.2752 4.137 15.2752 4.137C15.6446 4.97543 15.6803 5.92312 15.3752 6.787C16.0496 7.51801 16.4167 8.48058 16.4002 9.475C16.4002 13.312 14.0622 14.162 11.8382 14.412C12.0766 14.654 12.2602 14.9445 12.3765 15.2637C12.4927 15.5829 12.5391 15.9233 12.5122 16.262C12.5122 17.6 12.5002 18.675 12.5002 19.012C12.5002 19.275 12.6872 19.587 13.1872 19.487C15.4359 18.7299 17.3422 17.1984 18.5661 15.1658C19.7899 13.1331 20.2516 10.7317 19.8686 8.39019C19.4857 6.04866 18.2831 3.91943 16.4755 2.38258C14.6678 0.84573 12.3729 0.00129006 10.0002 2.49885e-09Z" fill="black"/>
</svg>
