<svg width="14" height="20" viewBox="0 0 14 20" fill="none" xmlns="http://www.w3.org/2000/svg">
<path d="M7 0H10.5C12.432 0 14 1.344 14 3C14 4.656 12.432 6 10.5 6H7V0Z" fill="#FF7262"/>
<path d="M7 14H3.5C1.568 14 0 15.344 0 17C0 18.656 1.568 20 3.5 20C5.432 20 7 18.656 7 17V14Z" fill="#0ACF83"/>
<path d="M7 6H3.5C1.568 6 0 7.792 0 10C0 12.208 1.568 14 3.5 14H7V10V6Z" fill="#A259FF"/>
<path d="M10.5 14C12.432 14 14 12.208 14 10C14 7.792 12.432 6 10.5 6C8.568 6 7 7.792 7 10C7 12.208 8.568 14 10.5 14Z" fill="#1ABCFE"/>
<path d="M7 6V0H3.5C1.568 0 0 1.344 0 3C0 4.656 1.568 6 3.5 6H7Z" fill="#F24E1E"/>
</svg>
