<svg width="22" height="28" viewBox="0 0 22 28" fill="none" xmlns="http://www.w3.org/2000/svg">
<path d="M11 28L2.56401 18.051C2.44679 17.9016 2.33078 17.7513 2.21601 17.6C0.775714 15.7014 -0.00267443 13.3831 6.90418e-06 11C6.90418e-06 8.08262 1.15893 5.28473 3.22183 3.22183C5.28473 1.15893 8.08263 0 11 0C13.9174 0 16.7153 1.15893 18.7782 3.22183C20.8411 5.28473 22 8.08262 22 11C22.0023 13.382 21.2243 15.6991 19.785 17.597L19.784 17.6C19.784 17.6 19.484 17.994 19.439 18.047L11 28ZM3.81301 16.395C3.81301 16.395 4.04601 16.703 4.09901 16.769L11 24.908L17.91 16.758C17.954 16.703 18.189 16.392 18.189 16.392C19.3662 14.8411 20.0024 12.947 20 11C20 8.61305 19.0518 6.32387 17.364 4.63604C15.6761 2.94821 13.387 2 11 2C8.61306 2 6.32387 2.94821 4.63605 4.63604C2.94822 6.32387 2.00001 8.61305 2.00001 11C1.99754 12.9483 2.63445 14.8436 3.81301 16.395Z" fill="#A0A3BD"/>
<path d="M11 16C10.0111 16 9.0444 15.7068 8.22215 15.1574C7.39991 14.6079 6.75904 13.8271 6.3806 12.9134C6.00217 11.9998 5.90315 10.9945 6.09608 10.0246C6.289 9.05465 6.76521 8.16373 7.46447 7.46447C8.16373 6.76521 9.05465 6.289 10.0246 6.09608C10.9945 5.90315 11.9998 6.00217 12.9134 6.3806C13.8271 6.75904 14.6079 7.39991 15.1574 8.22215C15.7068 9.0444 16 10.0111 16 11C15.9984 12.3256 15.4711 13.5964 14.5338 14.5338C13.5964 15.4711 12.3256 15.9984 11 16ZM11 8C10.4067 8 9.82664 8.17595 9.33329 8.50559C8.83994 8.83524 8.45543 9.30377 8.22836 9.85195C8.0013 10.4001 7.94189 11.0033 8.05765 11.5853C8.1734 12.1672 8.45912 12.7018 8.87868 13.1213C9.29824 13.5409 9.83279 13.8266 10.4147 13.9424C10.9967 14.0581 11.5999 13.9987 12.1481 13.7716C12.6962 13.5446 13.1648 13.1601 13.4944 12.6667C13.8241 12.1734 14 11.5933 14 11C13.9992 10.2046 13.6829 9.442 13.1204 8.87956C12.558 8.31712 11.7954 8.0008 11 8Z" fill="#A0A3BD"/>
</svg>
