<svg width="23" height="29" viewBox="0 0 23 29" fill="none" xmlns="http://www.w3.org/2000/svg">
<path d="M4.42841 20.3664C2.52587 22.2689 1.45703 24.8493 1.45703 27.5399H21.7469C21.7469 24.8493 20.678 22.2689 18.7755 20.3664C16.8729 18.4639 14.2925 17.395 11.6019 17.395C8.91135 17.395 6.33095 18.4639 4.42841 20.3664Z" fill="#A0A3BD"/>
<path d="M17.9424 8.05493C17.9424 11.5567 15.1036 14.3955 11.6018 14.3955C8.1 14.3955 5.26123 11.5567 5.26123 8.05493C5.26123 4.55313 8.1 1.71436 11.6018 1.71436C15.1036 1.71436 17.9424 4.55313 17.9424 8.05493Z" fill="#A0A3BD"/>
<path d="M4.42841 20.3664C2.52587 22.2689 1.45703 24.8493 1.45703 27.5399H21.7469C21.7469 24.8493 20.678 22.2689 18.7755 20.3664C16.8729 18.4639 14.2925 17.395 11.6019 17.395C8.91135 17.395 6.33095 18.4639 4.42841 20.3664Z" stroke="#A0A3BD" stroke-width="1.6" stroke-linecap="round" stroke-linejoin="round"/>
<path d="M17.9424 8.05493C17.9424 11.5567 15.1036 14.3955 11.6018 14.3955C8.1 14.3955 5.26123 11.5567 5.26123 8.05493C5.26123 4.55313 8.1 1.71436 11.6018 1.71436C15.1036 1.71436 17.9424 4.55313 17.9424 8.05493Z" stroke="#A0A3BD" stroke-width="1.6" stroke-linecap="round" stroke-linejoin="round"/>
</svg>
