<svg width="19" height="19" viewBox="0 0 19 19" fill="none" xmlns="http://www.w3.org/2000/svg">
<path d="M1 9.33252H12.6667M12.6667 9.33252L9.75 6.83252M12.6667 9.33252L9.75 11.8325" stroke="#E30048" stroke-width="1.5" stroke-linecap="round" stroke-linejoin="round"/>
<path opacity="0.5" d="M6.83398 5.16667C6.84398 3.35417 6.92482 2.3725 7.56482 1.7325C8.29732 1 9.47565 1 11.8323 1H12.6657C15.0232 1 16.2015 1 16.934 1.7325C17.6657 2.46417 17.6657 3.64333 17.6657 6V12.6667C17.6657 15.0233 17.6657 16.2025 16.934 16.9342C16.2007 17.6667 15.0232 17.6667 12.6657 17.6667H11.8323C9.47565 17.6667 8.29732 17.6667 7.56482 16.9342C6.92482 16.2942 6.84398 15.3125 6.83398 13.5" stroke="#E30048" stroke-width="1.5" stroke-linecap="round"/>
</svg>
