<svg width="19" height="17" viewBox="0 0 19 17" fill="none" xmlns="http://www.w3.org/2000/svg">
<path d="M10 7C11.6569 7 13 5.65685 13 4C13 2.34315 11.6569 1 10 1C8.34315 1 7 2.34315 7 4C7 5.65685 8.34315 7 10 7Z" stroke="white"/>
<path d="M3.125 9.375H2.625V8.875V7.625C2.625 7.59185 2.61183 7.56005 2.58839 7.53661C2.56495 7.51317 2.53315 7.5 2.5 7.5C2.46685 7.5 2.43505 7.51317 2.41161 7.53661C2.38882 7.55941 2.37574 7.5901 2.37503 7.62226L2.39711 8.86613L2.40614 9.375H1.89719H0.625C0.591848 9.375 0.560054 9.38817 0.536611 9.41161M3.125 9.375L0.536611 9.41161M3.125 9.375H4.375C4.40815 9.375 4.43995 9.38817 4.46339 9.41161C4.48683 9.43505 4.5 9.46685 4.5 9.5C4.5 9.53315 4.48683 9.56495 4.46339 9.58839C4.44059 9.61118 4.4099 9.62426 4.37774 9.62497L3.13387 9.60289L2.625 9.59386V10.1028V11.375C2.625 11.4082 2.61183 11.4399 2.58839 11.4634C2.56495 11.4868 2.53315 11.5 2.5 11.5C2.46685 11.5 2.43505 11.4868 2.41161 11.4634C2.38881 11.4406 2.37572 11.4099 2.37503 11.3777L2.39711 10.1115L2.40614 9.59386L1.88847 9.60289L0.622305 9.62497M3.125 9.375L0.622305 9.62497M0.536611 9.41161C0.51317 9.43505 0.5 9.46685 0.5 9.5C0.5 9.53315 0.51317 9.56495 0.536612 9.58839C0.559418 9.61119 0.590129 9.62428 0.622305 9.62497M0.536611 9.41161L0.622305 9.62497" fill="white" stroke="white"/>
<path fill-rule="evenodd" clip-rule="evenodd" d="M7.71461 9.509C7.71582 9.50793 7.71594 9.50608 7.71487 9.50487C7.71321 9.50297 7.71455 9.5 7.71707 9.5H14.0003C15.1938 9.5 16.3384 9.97411 17.1823 10.818C18.0262 11.6619 18.5003 12.8065 18.5003 14C18.5003 14.663 18.237 15.2989 17.7681 15.7678C17.2993 16.2366 16.6634 16.5 16.0003 16.5H4.00035C3.33731 16.5 2.70142 16.2366 2.23258 15.7678C1.88258 15.4178 1.64708 14.9747 1.55018 14.4967C1.49531 14.2261 1.72421 14 2.00035 14C2.27649 14 2.49256 14.2299 2.58292 14.4908C2.65651 14.7033 2.77765 14.8986 2.93969 15.0607C3.22099 15.342 3.60253 15.5 4.00035 15.5H16.0003C16.3982 15.5 16.7797 15.342 17.061 15.0607C17.3423 14.7794 17.5003 14.3978 17.5003 14C17.5003 13.0717 17.1316 12.1815 16.4752 11.5251C15.8188 10.8687 14.9286 10.5 14.0003 10.5H7.6793C7.2995 10.5 7.12218 10.0296 7.40748 9.77889L7.71461 9.509Z" fill="white"/>
</svg>
