<svg width="26" height="22" viewBox="0 0 26 22" fill="none" xmlns="http://www.w3.org/2000/svg">
<path d="M12.54 6.94737L16.2105 10.6063V10.4211C16.2105 9.49977 15.8446 8.61623 15.1931 7.96479C14.5417 7.31334 13.6581 6.94737 12.7368 6.94737H12.54ZM7.56105 7.87368L9.35579 9.66842C9.29789 9.91158 9.26316 10.1547 9.26316 10.4211C9.26316 11.3423 9.62913 12.2259 10.2806 12.8773C10.932 13.5288 11.8156 13.8947 12.7368 13.8947C12.9916 13.8947 13.2463 13.86 13.4895 13.8021L15.2842 15.5968C14.5084 15.9789 13.6516 16.2105 12.7368 16.2105C11.2014 16.2105 9.7288 15.6006 8.64307 14.5148C7.55733 13.4291 6.94737 11.9565 6.94737 10.4211C6.94737 9.50632 7.17895 8.64947 7.56105 7.87368ZM1.15789 1.47053L3.79789 4.11053L4.31895 4.63158C2.40842 6.13684 0.903158 8.10526 0 10.4211C2.00316 15.5042 6.94737 19.1053 12.7368 19.1053C14.5316 19.1053 16.2453 18.7579 17.8084 18.1326L18.3063 18.6189L21.6874 22L23.1579 20.5295L2.62842 0M12.7368 4.63158C14.2723 4.63158 15.7449 5.24154 16.8306 6.32728C17.9164 7.41301 18.5263 8.88559 18.5263 10.4211C18.5263 11.1621 18.3758 11.88 18.1095 12.5284L21.5021 15.9211C23.2389 14.4737 24.6284 12.5747 25.4737 10.4211C23.4705 5.33789 18.5263 1.73684 12.7368 1.73684C11.1158 1.73684 9.56421 2.02632 8.10526 2.54737L10.6179 5.03684C11.2779 4.78211 11.9842 4.63158 12.7368 4.63158Z" fill="#999999"/>
</svg>
