<svg width="60" height="60" viewBox="0 0 60 60" fill="none" xmlns="http://www.w3.org/2000/svg">
<path d="M50.7331 59.1666H9.26648C8.11052 59.1194 6.97521 58.8448 5.9255 58.3584C4.8758 57.872 3.9323 57.1834 3.149 56.332C2.3657 55.4806 1.75798 54.4831 1.3606 53.3965C0.963214 52.31 0.783979 51.1558 0.833146 49.9999V39.9999C0.833146 39.3369 1.09654 38.701 1.56538 38.2322C2.03422 37.7633 2.6701 37.4999 3.33315 37.4999C3.99619 37.4999 4.63207 37.7633 5.10091 38.2322C5.56975 38.701 5.83315 39.3369 5.83315 39.9999V49.9999C5.74708 50.9897 6.04529 51.9746 6.66592 52.7504C7.28655 53.5262 8.18197 54.0333 9.16648 54.1666H50.7331C51.7177 54.0333 52.6131 53.5262 53.2337 52.7504C53.8543 51.9746 54.1525 50.9897 54.0665 49.9999V39.9999C54.0665 39.3369 54.3299 38.701 54.7987 38.2322C55.2676 37.7633 55.9034 37.4999 56.5665 37.4999C57.2295 37.4999 57.8654 37.7633 58.3343 38.2322C58.8031 38.701 59.0665 39.3369 59.0665 39.9999V49.9999C59.1663 52.3178 58.3467 54.5814 56.7861 56.2981C55.2255 58.0148 53.05 59.0457 50.7331 59.1666ZM43.3331 19.1666C43.0047 19.1681 42.6792 19.1041 42.3758 18.9781C42.0725 18.8522 41.7973 18.667 41.5665 18.4332L29.9998 6.86658L18.4331 18.4332C17.9592 18.8748 17.3324 19.1153 16.6847 19.1038C16.0371 19.0924 15.4191 18.83 14.9611 18.372C14.503 17.9139 14.2407 17.296 14.2292 16.6483C14.2178 16.0007 14.4582 15.3738 14.8998 14.8999L28.2331 1.56658C28.7019 1.09841 29.3373 0.835449 29.9998 0.835449C30.6623 0.835449 31.2977 1.09841 31.7665 1.56658L45.0998 14.8999C45.568 15.3687 45.8309 16.0041 45.8309 16.6666C45.8309 17.3291 45.568 17.9645 45.0998 18.4332C44.869 18.667 44.5938 18.8522 44.2905 18.9781C43.9871 19.1041 43.6616 19.1681 43.3331 19.1666Z" fill="#E30048"/>
<path d="M30 42.4999C29.3396 42.4913 28.7088 42.2251 28.2418 41.7581C27.7748 41.2912 27.5086 40.6603 27.5 39.9999V3.33325C27.5 2.67021 27.7634 2.03433 28.2322 1.56548C28.7011 1.09664 29.337 0.833252 30 0.833252C30.663 0.833252 31.2989 1.09664 31.7678 1.56548C32.2366 2.03433 32.5 2.67021 32.5 3.33325V39.9999C32.4914 40.6603 32.2252 41.2912 31.7582 41.7581C31.2912 42.2251 30.6604 42.4913 30 42.4999Z" fill="#E30048"/>
</svg>
