<svg width="12" height="13" viewBox="0 0 12 13" fill="none" xmlns="http://www.w3.org/2000/svg">
<path d="M6 11.3236C6.9889 11.3236 7.9556 11.0298 8.77785 10.4794C9.60009 9.92891 10.241 9.14654 10.6194 8.23118C10.9978 7.31582 11.0969 6.30859 10.9039 5.33685C10.711 4.36511 10.2348 3.47251 9.53553 2.77193C8.83627 2.07134 7.94535 1.59424 6.97545 1.40095C6.00555 1.20765 5.00021 1.30686 4.08658 1.68601C3.17295 2.06517 2.39206 2.70724 1.84265 3.53104C1.29324 4.35484 1 5.32337 1 6.31415C1 7.14238 1.2 7.92274 1.55556 8.61126L1 11.3236L3.70722 10.767C4.39389 11.1227 5.17389 11.3236 6 11.3236Z" fill="white" stroke="white" stroke-width="2" stroke-linecap="round" stroke-linejoin="round"/>
</svg>
