<svg width="23" height="24" viewBox="0 0 23 24" fill="none" xmlns="http://www.w3.org/2000/svg">
<path d="M11.5386 19.1028L19.8125 11.1762C19.9402 11.0333 20.007 10.8494 19.9994 10.6614C19.9918 10.4734 19.9105 10.295 19.7716 10.1619C19.6327 10.0289 19.4465 9.95095 19.2503 9.94369C19.054 9.93642 18.8621 10.0004 18.7129 10.1228L12.3185 16.2415V0.813988C12.3185 0.615847 12.2363 0.42582 12.09 0.285713C11.9438 0.145606 11.7455 0.0668945 11.5386 0.0668945C11.3318 0.0668945 11.1335 0.145606 10.9872 0.285713C10.841 0.42582 10.7588 0.615847 10.7588 0.813988V16.2415L4.37212 10.1228C4.30221 10.0446 4.21619 9.98105 4.11944 9.9362C4.02269 9.89136 3.91731 9.86616 3.80992 9.86219C3.70252 9.85821 3.59543 9.87555 3.49536 9.91311C3.39529 9.95067 3.3044 10.0076 3.2284 10.0804C3.15241 10.1533 3.09294 10.2403 3.05373 10.3362C3.01453 10.4321 2.99643 10.5347 3.00058 10.6376C3.00473 10.7404 3.03103 10.8414 3.07784 10.9341C3.12465 11.0268 3.19095 11.1092 3.27258 11.1762L11.5386 19.1028Z" fill="#E30048"/>
<path d="M22.1786 22.1084H0.821429C0.603572 22.1084 0.394639 22.1876 0.240591 22.3286C0.0865433 22.4695 0 22.6607 0 22.8601C0 23.0595 0.0865433 23.2507 0.240591 23.3916C0.394639 23.5326 0.603572 23.6118 0.821429 23.6118H22.1786C22.3964 23.6118 22.6054 23.5326 22.7594 23.3916C22.9135 23.2507 23 23.0595 23 22.8601C23 22.6607 22.9135 22.4695 22.7594 22.3286C22.6054 22.1876 22.3964 22.1084 22.1786 22.1084Z" fill="#E30048"/>
</svg>
