<svg width="12" height="13" viewBox="0 0 12 13" fill="none" xmlns="http://www.w3.org/2000/svg">
<path d="M5.75 11.4701C6.68946 11.4701 7.60782 11.191 8.38896 10.6681C9.17009 10.1452 9.77891 9.40191 10.1384 8.53232C10.4979 7.66273 10.592 6.70586 10.4087 5.7827C10.2254 4.85955 9.77305 4.01158 9.10875 3.34602C8.44446 2.68047 7.59809 2.22722 6.67668 2.04359C5.75527 1.85997 4.8002 1.95421 3.93225 2.31441C3.0643 2.6746 2.32246 3.28457 1.80052 4.06719C1.27858 4.8498 1 5.7699 1 6.71114C1 7.49795 1.19 8.2393 1.52778 8.89339L1 11.4701L3.57186 10.9413C4.22419 11.2792 4.96519 11.4701 5.75 11.4701Z" fill="#E30048" stroke="#E30048" stroke-width="2" stroke-linecap="round" stroke-linejoin="round"/>
</svg>
