<svg width="31" height="27" viewBox="0 0 31 27" fill="none" xmlns="http://www.w3.org/2000/svg">
<path fill-rule="evenodd" clip-rule="evenodd" d="M27.1512 12.5485C28.3351 11.3739 28.9928 9.78799 28.9796 8.1397C28.9665 6.49142 28.2834 4.91576 27.0809 3.75935C26.4854 3.18676 25.7803 2.73433 25.0059 2.42789C24.2314 2.12146 23.4027 1.96702 22.5672 1.9734C20.8797 1.98628 19.2665 2.65342 18.0826 3.82804C17.7611 4.14206 17.3525 4.52749 16.8569 4.98434L15.4789 6.25185L14.1008 4.98434C13.6041 4.5264 13.195 4.14097 12.8735 3.82804C11.6802 2.66253 10.0618 2.00775 8.37433 2.00775C6.68682 2.00775 5.06843 2.66253 3.87518 3.82804C1.41714 6.23059 1.38868 10.1149 3.78476 12.5289L15.4789 23.9512L27.1512 12.5485ZM2.45361 2.44114C3.23105 1.68156 4.15408 1.07902 5.16997 0.667928C6.18586 0.256836 7.27471 0.0452472 8.37433 0.0452472C9.47395 0.0452472 10.5628 0.256836 11.5787 0.667928C12.5946 1.07902 13.5176 1.68156 14.2951 2.44114C14.5998 2.73989 14.9944 3.11169 15.4789 3.55655C15.9611 3.11169 16.3557 2.73935 16.6627 2.4395C18.2207 0.894232 20.3434 0.0168014 22.5638 0.00023878C24.7842 -0.0163238 26.9204 0.829337 28.5024 2.35119C30.0845 3.87304 30.9828 5.94641 30.9998 8.1152C31.0167 10.284 30.1509 12.3705 28.5929 13.9158L16.6627 25.5703C16.3487 25.8769 15.9229 26.0492 15.4789 26.0492C15.0349 26.0492 14.6091 25.8769 14.2951 25.5703L2.36151 13.9141C0.831168 12.3725 -0.0169733 10.3048 0.000257499 8.15758C0.0174883 6.01033 0.898708 3.95587 2.45361 2.43787V2.44114Z" fill="#E30048"/>
</svg>
