<svg width="12" height="12" viewBox="0 0 12 12" fill="none" xmlns="http://www.w3.org/2000/svg">
<path fill-rule="evenodd" clip-rule="evenodd" d="M0.952251 1.31752C1.56115 0.667751 2.38689 0.302734 3.24788 0.302734C4.10887 0.302734 4.93461 0.667751 5.54352 1.31752C5.66257 1.44414 5.81583 1.60172 6.00329 1.79027C6.19032 1.60172 6.34336 1.44414 6.46242 1.31752C7.06877 0.673316 7.8888 0.310579 8.7443 0.308133C9.5998 0.305687 10.4216 0.663731 11.0312 1.30445C11.6408 1.94518 11.9888 2.8168 11.9997 3.72992C12.0106 4.64303 11.6835 5.52384 11.0894 6.18093L6.46177 11.1206C6.33999 11.2505 6.17484 11.3235 6.00264 11.3235C5.83045 11.3235 5.6653 11.2505 5.54352 11.1206L0.915885 6.18162C0.322358 5.52822 -0.0065829 4.65184 9.9868e-05 3.74176C0.00678264 2.83167 0.349203 1.9609 0.952251 1.31752Z" fill="white"/>
</svg>
