<svg width="27" height="28" viewBox="0 0 27 28" fill="none" xmlns="http://www.w3.org/2000/svg">
<path d="M13.5 26.6376C15.9723 26.6376 18.389 25.9031 20.4446 24.527C22.5002 23.1509 24.1024 21.195 25.0485 18.9066C25.9946 16.6182 26.2421 14.1001 25.7598 11.6707C25.2775 9.24139 24.087 7.00989 22.3388 5.25843C20.5907 3.50697 18.3634 2.3142 15.9386 1.83098C13.5139 1.34775 11.0005 1.59576 8.71645 2.54364C6.43238 3.49153 4.48015 5.09672 3.10663 7.15622C1.73311 9.21572 1 11.637 1 14.114C1 16.1846 1.5 18.1355 2.38889 19.8568L1 26.6376L7.76805 25.2461C9.48472 26.1353 11.4347 26.6376 13.5 26.6376Z" stroke="#E30048" stroke-width="2" stroke-linecap="round" stroke-linejoin="round"/>
</svg>
