<svg width="12" height="12" viewBox="0 0 12 12" fill="none" xmlns="http://www.w3.org/2000/svg">
<path d="M6 0C2.68631 0 0 2.46711 0 5.51041C0 8.55387 2.68631 11.0208 6 11.0208C9.31387 11.0208 12 8.55387 12 5.51041C12 2.46711 9.31387 0 6 0ZM6 10.3429C3.10519 10.3429 0.75 8.169 0.75 5.51038C0.75 2.85179 3.10519 0.688779 6 0.688779C8.89481 0.688779 11.25 2.8518 11.25 5.51038C11.25 8.16897 8.89481 10.3429 6 10.3429ZM8.625 5.166H6.375V3.0996C6.375 2.90949 6.207 2.7552 6 2.7552C5.793 2.7552 5.625 2.90949 5.625 3.0996V5.166H3.375C3.168 5.166 3 5.3203 3 5.51041C3 5.70051 3.168 5.85481 3.375 5.85481H5.625V7.92121C5.625 8.11132 5.793 8.26561 6 8.26561C6.207 8.26561 6.375 8.11132 6.375 7.92121V5.85481H8.625C8.832 5.85481 9 5.70051 9 5.51041C9 5.3203 8.832 5.166 8.625 5.166Z" fill="white"/>
</svg>
