<svg width="25" height="23" viewBox="0 0 25 23" fill="none" xmlns="http://www.w3.org/2000/svg">
<path d="M18.414 0.910156L17 2.29057L21.168 6.34387H11.5C10.0418 6.34542 8.64377 6.91202 7.61267 7.91934C6.58156 8.92667 6.00159 10.2924 6 11.717C6 14.6801 8.468 17.0902 11.5 17.0902H12V15.1363H11.5C9.57 15.1363 8 13.6025 8 11.717C8 9.83153 9.57 8.29774 11.5 8.29774H21.172L17.008 12.3657L18.422 13.7471L25 7.32081L18.414 0.910156ZM0 1.45919V22.9518H22V13.1824L20 15.1363V20.9979H2V3.41306H12.854L14.854 1.45919H0Z" fill="#E30048"/>
</svg>
