<svg width="11" height="8" viewBox="0 0 11 8" fill="none" xmlns="http://www.w3.org/2000/svg">
<mask id="path-1-inside-1_1471_198" fill="white">
<path d="M10.9758 4.15812C10.96 4.12305 10.5722 3.2936 9.70615 2.45831C8.90259 1.68415 7.52197 0.760742 5.5 0.760742C3.47803 0.760742 2.09742 1.68415 1.29385 2.45831C0.427818 3.2936 0.0400172 4.1217 0.0241696 4.15812C0.00823445 4.19265 0 4.23002 0 4.26781C0 4.30561 0.00823445 4.34298 0.0241696 4.37751C0.0400172 4.41212 0.427818 5.24157 1.29385 6.07687C2.09742 6.85102 3.47803 7.77398 5.5 7.77398C7.52197 7.77398 8.90259 6.85102 9.70615 6.07687C10.5722 5.24157 10.96 4.41347 10.9758 4.37751C10.9918 4.34298 11 4.30561 11 4.26781C11 4.23002 10.9918 4.19265 10.9758 4.15812ZM5.5 7.2345C4.03735 7.2345 2.76022 6.7211 1.70355 5.70912C1.26062 5.28452 0.885787 4.79859 0.591422 4.26736C0.885708 3.73623 1.26055 3.25044 1.70355 2.82605C2.76022 1.81363 4.03735 1.30022 5.5 1.30022C6.96265 1.30022 8.23978 1.81363 9.29644 2.82605C9.73945 3.25044 10.1143 3.73623 10.4086 4.26736C10.1117 4.81628 8.62292 7.2345 5.5 7.2345ZM5.5 2.19936C5.07594 2.19936 4.6614 2.32064 4.30881 2.54788C3.95621 2.77511 3.6814 3.09809 3.51912 3.47597C3.35683 3.85385 3.31437 4.26966 3.3971 4.67081C3.47983 5.07197 3.68404 5.44045 3.9839 5.72967C4.28375 6.01888 4.66579 6.21584 5.08171 6.29563C5.49762 6.37543 5.92873 6.33448 6.32051 6.17795C6.71229 6.02143 7.04715 5.75637 7.28275 5.41629C7.51835 5.0762 7.64409 4.67638 7.64409 4.26736C7.64335 3.71911 7.41722 3.19352 7.01529 2.80585C6.61335 2.41818 6.06842 2.20007 5.5 2.19936ZM5.5 5.79589C5.18656 5.79589 4.88017 5.70624 4.61955 5.53829C4.35894 5.37033 4.15582 5.13161 4.03587 4.85231C3.91592 4.573 3.88454 4.26567 3.94569 3.96916C4.00683 3.67266 4.15777 3.4003 4.3794 3.18653C4.60104 2.97276 4.88341 2.82718 5.19083 2.76821C5.49824 2.70923 5.81688 2.7395 6.10646 2.85519C6.39604 2.97088 6.64355 3.16679 6.81768 3.41816C6.99182 3.66952 7.08476 3.96505 7.08476 4.26736C7.08476 4.67275 6.9178 5.06154 6.6206 5.3482C6.3234 5.63485 5.92031 5.79589 5.5 5.79589Z"/>
</mask>
<path d="M10.9758 4.15812C10.96 4.12305 10.5722 3.2936 9.70615 2.45831C8.90259 1.68415 7.52197 0.760742 5.5 0.760742C3.47803 0.760742 2.09742 1.68415 1.29385 2.45831C0.427818 3.2936 0.0400172 4.1217 0.0241696 4.15812C0.00823445 4.19265 0 4.23002 0 4.26781C0 4.30561 0.00823445 4.34298 0.0241696 4.37751C0.0400172 4.41212 0.427818 5.24157 1.29385 6.07687C2.09742 6.85102 3.47803 7.77398 5.5 7.77398C7.52197 7.77398 8.90259 6.85102 9.70615 6.07687C10.5722 5.24157 10.96 4.41347 10.9758 4.37751C10.9918 4.34298 11 4.30561 11 4.26781C11 4.23002 10.9918 4.19265 10.9758 4.15812ZM5.5 7.2345C4.03735 7.2345 2.76022 6.7211 1.70355 5.70912C1.26062 5.28452 0.885787 4.79859 0.591422 4.26736C0.885708 3.73623 1.26055 3.25044 1.70355 2.82605C2.76022 1.81363 4.03735 1.30022 5.5 1.30022C6.96265 1.30022 8.23978 1.81363 9.29644 2.82605C9.73945 3.25044 10.1143 3.73623 10.4086 4.26736C10.1117 4.81628 8.62292 7.2345 5.5 7.2345ZM5.5 2.19936C5.07594 2.19936 4.6614 2.32064 4.30881 2.54788C3.95621 2.77511 3.6814 3.09809 3.51912 3.47597C3.35683 3.85385 3.31437 4.26966 3.3971 4.67081C3.47983 5.07197 3.68404 5.44045 3.9839 5.72967C4.28375 6.01888 4.66579 6.21584 5.08171 6.29563C5.49762 6.37543 5.92873 6.33448 6.32051 6.17795C6.71229 6.02143 7.04715 5.75637 7.28275 5.41629C7.51835 5.0762 7.64409 4.67638 7.64409 4.26736C7.64335 3.71911 7.41722 3.19352 7.01529 2.80585C6.61335 2.41818 6.06842 2.20007 5.5 2.19936ZM5.5 5.79589C5.18656 5.79589 4.88017 5.70624 4.61955 5.53829C4.35894 5.37033 4.15582 5.13161 4.03587 4.85231C3.91592 4.573 3.88454 4.26567 3.94569 3.96916C4.00683 3.67266 4.15777 3.4003 4.3794 3.18653C4.60104 2.97276 4.88341 2.82718 5.19083 2.76821C5.49824 2.70923 5.81688 2.7395 6.10646 2.85519C6.39604 2.97088 6.64355 3.16679 6.81768 3.41816C6.99182 3.66952 7.08476 3.96505 7.08476 4.26736C7.08476 4.67275 6.9178 5.06154 6.6206 5.3482C6.3234 5.63485 5.92031 5.79589 5.5 5.79589Z" fill="#E30048"/>
<path d="M10.9758 4.15812L2.77449 7.86459L2.78918 7.8971L2.80412 7.92948L10.9758 4.15812ZM9.70615 2.45831L15.9541 -4.01956L15.9504 -4.02318L9.70615 2.45831ZM1.29385 2.45831L-4.95038 -4.02318L-4.95414 -4.01956L1.29385 2.45831ZM0.0241696 4.15812L8.19588 7.92948L8.2372 7.83995L8.27655 7.74953L0.0241696 4.15812ZM0.0241696 4.37751L8.20739 0.631192L8.20165 0.61866L8.19588 0.606145L0.0241696 4.37751ZM1.29385 6.07687L-4.95414 12.5547L-4.95038 12.5584L1.29385 6.07687ZM9.70615 6.07687L15.9504 12.5584L15.9541 12.5547L9.70615 6.07687ZM10.9758 4.37751L2.80412 0.606145L2.77141 0.677027L2.73993 0.748467L10.9758 4.37751ZM1.70355 5.70912L-4.52457 12.2061L-4.52147 12.2091L1.70355 5.70912ZM0.591422 4.26736L-7.28096 -0.0944656L-9.69783 4.26759L-7.28077 8.62954L0.591422 4.26736ZM1.70355 2.82605L7.92946 9.32514L7.93002 9.3246L1.70355 2.82605ZM9.29644 2.82605L3.06998 9.3246L3.07054 9.32514L9.29644 2.82605ZM10.4086 4.26736L18.3248 8.54921L20.6689 4.21538L18.281 -0.0944656L10.4086 4.26736ZM5.5 2.19936L5.5113 -6.80064H5.5V2.19936ZM7.64409 4.26736H16.6441L16.6441 4.25522L7.64409 4.26736ZM5.5 5.79589V-3.20411V5.79589ZM19.1772 0.451643C18.877 -0.212485 17.9124 -2.13079 15.9541 -4.01956L3.45817 8.93617C3.31319 8.79633 3.21226 8.66353 3.13217 8.54131C3.08854 8.47473 3.04083 8.39552 2.98776 8.29804C2.94276 8.21536 2.86947 8.07476 2.77449 7.86459L19.1772 0.451643ZM15.9504 -4.02318C14.0198 -5.88311 10.5167 -8.23926 5.5 -8.23926V9.76074C5.09195 9.76074 4.64351 9.65761 4.23747 9.46712C3.86689 9.29327 3.61577 9.08801 3.46193 8.93979L15.9504 -4.02318ZM5.5 -8.23926C0.483267 -8.23926 -3.01978 -5.88311 -4.95038 -4.02318L7.53807 8.93979C7.38423 9.08801 7.13311 9.29327 6.76253 9.46712C6.35649 9.65761 5.90805 9.76074 5.5 9.76074V-8.23926ZM-4.95414 -4.01956C-6.89018 -2.15222 -7.87902 -0.235672 -8.22821 0.566709L8.27655 7.74953C8.21903 7.88169 8.17235 7.97983 8.16319 7.99916C8.14167 8.04453 8.12233 8.08414 8.10546 8.11804C8.07149 8.18632 8.0408 8.24497 8.01343 8.29528C7.95904 8.39527 7.91051 8.47571 7.86662 8.54265C7.7858 8.66591 7.68518 8.79791 7.54183 8.93617L-4.95414 -4.01956ZM-8.14754 0.386756C-8.70568 1.59611 -9 2.91947 -9 4.26781H9C9 5.54056 8.72214 6.78918 8.19588 7.92948L-8.14754 0.386756ZM-9 4.26781C-9 5.61614 -8.70568 6.9395 -8.14754 8.14887L8.19588 0.606145C8.72215 1.74646 9 2.99507 9 4.26781H-9ZM-8.15905 8.12382C-7.87625 8.74157 -6.91815 10.6604 -4.95414 12.5547L7.54183 -0.400992C7.68682 -0.261151 7.78761 -0.128476 7.86743 -0.00669497C7.94644 0.113862 8.05806 0.304998 8.20739 0.631192L-8.15905 8.12382ZM-4.95038 12.5584C-3.01838 14.4196 0.484738 16.774 5.5 16.774V-1.22602C5.90732 -1.22602 6.35539 -1.12312 6.76146 -0.932678C7.13211 -0.75885 7.38359 -0.553441 7.53807 -0.404615L-4.95038 12.5584ZM5.5 16.774C10.5153 16.774 14.0184 14.4196 15.9504 12.5584L3.46193 -0.404615C3.61641 -0.55344 3.86789 -0.75885 4.23854 -0.932678C4.64461 -1.12312 5.09268 -1.22602 5.5 -1.22602V16.774ZM15.9541 12.5547C17.8966 10.6812 18.877 8.76611 19.2117 8.00655L2.73993 0.748467C2.79024 0.634294 2.83041 0.549844 2.84129 0.52697C2.86181 0.483829 2.88045 0.445698 2.89702 0.412454C2.93032 0.345622 2.96057 0.28785 2.98776 0.237898C3.04174 0.138732 3.09 0.0587277 3.13378 -0.00802898C3.21433 -0.130858 3.31482 -0.262729 3.45817 -0.400992L15.9541 12.5547ZM19.1475 8.14887C19.7057 6.9395 20 5.61613 20 4.26781H2C2 2.99508 2.27785 1.74646 2.80412 0.606145L19.1475 8.14887ZM20 4.26781C20 2.91948 19.7057 1.59612 19.1475 0.386756L2.80412 7.92948C2.27785 6.78917 2 5.54056 2 4.26781H20ZM5.5 -1.7655C5.84182 -1.7655 6.30377 -1.70121 6.80532 -1.49967C7.30672 -1.29818 7.68352 -1.0255 7.92858 -0.790806L-4.52147 12.2091C-1.79134 14.8237 1.71517 16.2345 5.5 16.2345V-1.7655ZM7.93168 -0.787837C8.13397 -0.593912 8.31564 -0.361863 8.46361 -0.094813L-7.28077 8.62954C-6.54406 9.95904 -5.61274 11.1629 -4.52457 12.2061L7.93168 -0.787837ZM8.46381 8.62919C8.31521 8.89739 8.13271 9.13043 7.92946 9.32514L-4.52235 -3.67304C-5.61162 -2.62955 -6.54379 -1.42494 -7.28096 -0.0944656L8.46381 8.62919ZM7.93002 9.3246C7.68484 9.55952 7.30777 9.8325 6.80596 10.0342C6.30402 10.2359 5.84182 10.3002 5.5 10.3002V-7.69978C1.71493 -7.69978 -1.79232 -6.28876 -4.52291 -3.6725L7.93002 9.3246ZM5.5 10.3002C5.15818 10.3002 4.69597 10.2359 4.19404 10.0342C3.69223 9.8325 3.31516 9.55952 3.06998 9.3246L15.5229 -3.6725C12.7923 -6.28876 9.28508 -7.69978 5.5 -7.69978V10.3002ZM3.07054 9.32514C2.86729 9.13043 2.68479 8.89739 2.53619 8.62919L18.281 -0.0944656C17.5438 -1.42494 16.6116 -2.62956 15.5223 -3.67304L3.07054 9.32514ZM2.4924 -0.0144808C2.65663 -0.318096 2.85444 -0.622362 3.21799 -0.928407C3.4308 -1.10755 3.74835 -1.32602 4.1763 -1.49862C4.62456 -1.67941 5.08655 -1.7655 5.5 -1.7655V16.2345C13.8765 16.2345 17.6755 9.7495 18.3248 8.54921L2.4924 -0.0144808ZM5.5 -6.80064C3.36676 -6.80064 1.25629 -6.192 -0.566628 -5.01718L9.18424 10.1129C8.06651 10.8333 6.78511 11.1994 5.5 11.1994V-6.80064ZM-0.566628 -5.01718C-2.39279 -3.84028 -3.86657 -2.13384 -4.75055 -0.0754635L11.7888 7.02741C11.2294 8.33003 10.3052 9.39051 9.18424 10.1129L-0.566628 -5.01718ZM-4.75055 -0.0754635C-5.63626 1.98696 -5.87365 4.27633 -5.4174 6.48863L12.2116 2.85299C12.5024 4.26298 12.3499 5.72074 11.7888 7.02741L-4.75055 -0.0754635ZM-5.4174 6.48863C-4.96168 8.69842 -3.84567 10.6821 -2.26409 12.2075L10.2319 -0.748196C11.2137 0.19883 11.9213 1.44551 12.2116 2.85299L-5.4174 6.48863ZM-2.26409 12.2075C-0.685987 13.7296 1.2859 14.7315 3.38595 15.1344L6.77746 -2.54317C8.04569 -2.29985 9.25349 -1.69186 10.2319 -0.748196L-2.26409 12.2075ZM3.38595 15.1344C5.48477 15.5371 7.66352 15.3331 9.65953 14.5356L2.98149 -2.17974C4.19394 -2.66412 5.51048 -2.78624 6.77746 -2.54317L3.38595 15.1344ZM9.65953 14.5356C11.6579 13.7373 13.418 12.3644 14.6809 10.5415L-0.115405 0.291123C0.676258 -0.851641 1.76666 -1.69439 2.98149 -2.17974L9.65953 14.5356ZM14.6809 10.5415C15.9467 8.71429 16.6441 6.53036 16.6441 4.26736H-1.35591C-1.35591 2.82239 -0.91 1.43812 -0.115405 0.291123L14.6809 10.5415ZM16.6441 4.25522C16.64 1.21727 15.384 -1.6265 13.2633 -3.67201L0.767303 9.28371C-0.549596 8.01355 -1.35328 6.22096 -1.3559 4.27951L16.6441 4.25522ZM13.2633 -3.67201C11.1535 -5.70692 8.36004 -6.79706 5.5113 -6.80064L5.4887 11.1993C3.7768 11.1972 2.07321 10.5433 0.767303 9.28371L13.2633 -3.67201ZM5.5 -3.20411C6.89573 -3.20411 8.28527 -2.8064 9.49499 -2.02677L-0.255882 13.1033C1.47506 14.2189 3.47739 14.7959 5.5 14.7959V-3.20411ZM9.49499 -2.02677C10.7079 -1.24506 11.7038 -0.100318 12.3055 1.30087L-4.23379 8.40374C-3.39215 10.3635 -1.99007 11.9857 -0.255882 13.1033L9.49499 -2.02677ZM12.3055 1.30087C12.909 2.70611 13.0726 4.27234 12.7602 5.78699L-4.86882 2.15134C-5.30348 4.259 -5.07717 6.4399 -4.23379 8.40374L12.3055 1.30087ZM12.7602 5.78699C12.4483 7.29912 11.6875 8.64192 10.6274 9.66439L-1.86858 -3.29133C-3.37194 -1.84132 -4.43468 0.0461971 -4.86882 2.15134L12.7602 5.78699ZM10.6274 9.66439C9.57078 10.6835 8.26331 11.3429 6.88658 11.607L3.49507 -6.0706C1.50351 -5.68851 -0.368709 -4.73798 -1.86858 -3.29133L10.6274 9.66439ZM6.88658 11.607C5.51109 11.8709 4.08209 11.7381 2.76745 11.2129L9.44548 -5.5025C7.55168 -6.2591 5.48539 -6.45245 3.49507 -6.0706L6.88658 11.607ZM2.76745 11.2129C1.45042 10.6867 0.272659 9.77481 -0.58047 8.54332L14.2158 -1.70701C13.0144 -3.44122 11.3417 -4.74495 9.44548 -5.5025L2.76745 11.2129ZM-0.58047 8.54332C-1.43653 7.30761 -1.91523 5.81903 -1.91523 4.26736H16.0848C16.0848 2.11107 15.4202 0.031441 14.2158 -1.70701L-0.58047 8.54332ZM-1.91523 4.26736C-1.91523 2.17872 -1.05197 0.244362 0.372614 -1.12967L12.8686 11.8261C14.8876 9.87872 16.0848 7.16679 16.0848 4.26736H-1.91523ZM0.372614 -1.12967C1.78614 -2.49303 3.63617 -3.20411 5.5 -3.20411V14.7959C8.20444 14.7959 10.8607 13.7627 12.8686 11.8261L0.372614 -1.12967Z" fill="#E30048" mask="url(#path-1-inside-1_1471_198)"/>
</svg>
