<svg width="17" height="17" viewBox="0 0 17 17" fill="none" xmlns="http://www.w3.org/2000/svg">
<path d="M8.51556 1.49845C8.53557 1.69619 8.47661 1.89382 8.35164 2.04789C8.22667 2.20195 8.04592 2.29984 7.84914 2.32002C6.63292 2.44712 5.47743 2.91788 4.51652 3.67777C3.55562 4.43765 2.82863 5.45556 2.41979 6.61356C2.01095 7.77157 1.93698 9.02227 2.20646 10.2208C2.47593 11.4193 3.07783 12.5166 3.9424 13.3855C4.80698 14.2543 5.89886 14.8593 7.09154 15.1303C8.28422 15.4012 9.52889 15.3271 10.6814 14.9164C11.8338 14.5057 12.8469 13.7754 13.6033 12.8099C14.3596 11.8444 14.8283 10.6834 14.9549 9.46129C14.9635 9.36226 14.9916 9.26593 15.0376 9.17792C15.0836 9.0899 15.1465 9.01196 15.2227 8.94862C15.299 8.88527 15.387 8.8378 15.4817 8.80897C15.5763 8.78013 15.6758 8.7705 15.7742 8.78064C15.8726 8.79078 15.968 8.82049 16.0549 8.86803C16.1418 8.91558 16.2184 8.98001 16.2802 9.05758C16.3421 9.13515 16.388 9.22432 16.4152 9.31988C16.4425 9.41544 16.4505 9.51549 16.4389 9.61421C16.2835 11.1184 15.7071 12.5475 14.7765 13.736C13.8459 14.9245 12.5992 15.8237 11.1809 16.3293C9.76255 16.835 8.23065 16.9264 6.76272 16.593C5.29479 16.2596 3.95094 15.515 2.88689 14.4455C1.82284 13.3761 1.08217 12.0255 0.750715 10.5504C0.419256 9.07527 0.510578 7.53595 1.0141 6.11084C1.51762 4.68572 2.41273 3.43316 3.59568 2.49831C4.77863 1.56346 6.20101 0.984595 7.69796 0.8288C7.89474 0.808691 8.09142 0.86794 8.24474 0.993516C8.39806 1.11909 8.49547 1.30072 8.51556 1.49845ZM9.5301 1.43248C9.55288 1.33662 9.59424 1.24622 9.65183 1.16644C9.70941 1.08666 9.78209 1.01908 9.8657 0.967554C9.94931 0.916031 10.0422 0.881581 10.1391 0.866176C10.236 0.85077 10.3349 0.854711 10.4303 0.877774C10.8069 0.968393 11.1726 1.085 11.5274 1.22759C11.7061 1.30463 11.8478 1.44876 11.9223 1.62927C11.9969 1.80978 11.9983 2.0124 11.9263 2.19395C11.8543 2.3755 11.7146 2.52162 11.537 2.60118C11.3593 2.68074 11.1578 2.68744 10.9753 2.61986C10.6869 2.50459 10.3891 2.40997 10.0821 2.33601C9.88986 2.28955 9.72382 2.16829 9.62049 1.99886C9.51716 1.82944 9.48401 1.62572 9.5301 1.43248ZM16.0431 5.76322C15.9698 5.57846 15.8266 5.43049 15.6448 5.35186C15.463 5.27323 15.2576 5.27038 15.0738 5.34394C14.8899 5.4175 14.7426 5.56144 14.6644 5.7441C14.5861 5.92676 14.5833 6.13317 14.6565 6.31793C14.7712 6.60845 14.8657 6.90762 14.94 7.21546C14.9862 7.40884 15.1069 7.57586 15.2756 7.6798C15.3591 7.73126 15.4519 7.76569 15.5487 7.78111C15.6455 7.79653 15.7444 7.79264 15.8396 7.76967C15.9349 7.7467 16.0248 7.7051 16.1041 7.64724C16.1834 7.58937 16.2505 7.51639 16.3017 7.43244C16.353 7.34849 16.3872 7.25523 16.4026 7.15798C16.4179 7.06073 16.414 6.96139 16.3912 6.86564C16.3018 6.49021 16.1854 6.12177 16.0431 5.76322ZM12.7856 2.71681C12.9155 2.56694 13.0994 2.47505 13.2967 2.46137C13.4941 2.44769 13.6887 2.51333 13.8379 2.64385C14.1436 2.91104 14.4281 3.19989 14.6913 3.5104C14.8195 3.66189 14.8826 3.85835 14.8666 4.05657C14.8507 4.25479 14.757 4.43852 14.6063 4.56735C14.4555 4.69617 14.26 4.75955 14.0628 4.74352C13.8655 4.72749 13.6826 4.63338 13.5544 4.48189C13.3394 4.22971 13.1067 3.99323 12.8582 3.77426C12.709 3.64369 12.6176 3.45895 12.604 3.26064C12.5904 3.06234 12.6557 2.86673 12.7856 2.71681ZM8.51854 4.53986C8.51854 4.34105 8.43995 4.15039 8.30005 4.00981C8.16015 3.86923 7.9704 3.79025 7.77255 3.79025C7.57471 3.79025 7.38496 3.86923 7.24506 4.00981C7.10516 4.15039 7.02657 4.34105 7.02657 4.53986V9.53725C7.02657 9.95203 7.36077 10.2869 7.77255 10.2869H10.7565C10.9543 10.2869 11.1441 10.2079 11.284 10.0673C11.4239 9.92672 11.5025 9.73606 11.5025 9.53725C11.5025 9.33844 11.4239 9.14777 11.284 9.0072C11.1441 8.86662 10.9543 8.78764 10.7565 8.78764H8.51854V4.53986Z" fill="white"/>
</svg>
