<svg width="17" height="17" viewBox="0 0 17 17" fill="none" xmlns="http://www.w3.org/2000/svg">
<path d="M15.6814 0.819405C15.4397 0.576359 15.1528 0.383548 14.837 0.251997C14.5211 0.120446 14.1826 0.0527344 13.8407 0.0527344C13.4988 0.0527344 13.1603 0.120446 12.8444 0.251997C12.5286 0.383548 12.2417 0.576359 12 0.819405L2.21187 10.6549C1.9206 10.9475 1.70876 11.3107 1.59755 11.7098L0.573449 15.3847C0.549788 15.4699 0.549093 15.5599 0.571434 15.6454C0.593776 15.731 0.638352 15.809 0.700595 15.8715C0.762837 15.9341 0.840509 15.9789 0.92565 16.0013C1.01079 16.0238 1.10034 16.0231 1.18513 15.9993L4.84195 14.9703C5.23941 14.8594 5.60141 14.6467 5.89253 14.3531L15.6814 4.5176C15.9232 4.27484 16.115 3.98658 16.2458 3.6693C16.3767 3.35203 16.4441 3.01195 16.4441 2.6685C16.4441 2.32505 16.3767 1.98498 16.2458 1.6677C16.115 1.35042 15.9232 1.06216 15.6814 0.819405ZM12.7024 1.52446C13.0044 1.22112 13.4139 1.05075 13.8409 1.05081C14.2679 1.05087 14.6774 1.22137 14.9793 1.52479C15.2812 1.82821 15.4508 2.2397 15.4507 2.66874C15.4507 3.09777 15.281 3.50921 14.979 3.81255L13.9595 4.8362L11.6829 2.54811L12.7024 1.52446ZM10.9812 3.25383L13.2585 5.54192L5.19016 13.648C5.01975 13.8204 4.80755 13.9451 4.57451 14.0098L1.76702 14.7994L2.5528 11.9792C2.61809 11.7454 2.7421 11.5324 2.91292 11.3606L10.9812 3.25383Z" fill="white"/>
</svg>
