<svg width="17" height="14" viewBox="0 0 17 14" fill="none" xmlns="http://www.w3.org/2000/svg">
<path d="M1.17383 12.6475C1.17383 12.6475 3.30757 9.92312 8.57253 9.92312C13.8375 9.92312 15.9722 12.6475 15.9722 12.6475M8.57253 6.57269C9.33418 6.57269 10.0646 6.27013 10.6032 5.73156C11.1418 5.193 11.4443 4.46254 11.4443 3.7009C11.4443 2.93925 11.1418 2.2088 10.6032 1.67023C10.0646 1.13166 9.33418 0.829102 8.57253 0.829102C7.81088 0.829102 7.08043 1.13166 6.54186 1.67023C6.0033 2.2088 5.70073 2.93925 5.70073 3.7009C5.70073 4.46254 6.0033 5.193 6.54186 5.73156C7.08043 6.27013 7.81088 6.57269 8.57253 6.57269Z" stroke="white" stroke-width="1.5" stroke-linecap="round" stroke-linejoin="round"/>
</svg>
