<?xml version="1.0" standalone="no"?>
<!DOCTYPE svg PUBLIC "-//W3C//DTD SVG 20010904//EN"
 "http://www.w3.org/TR/2001/REC-SVG-20010904/DTD/svg10.dtd">
<svg version="1.0" xmlns="http://www.w3.org/2000/svg"
 width="128.000000pt" height="128.000000pt" viewBox="0 0 128.000000 128.000000"
 preserveAspectRatio="xMidYMid meet">

<g transform="translate(0.000000,128.000000) scale(0.100000,-0.100000)"
fill="#E30048" stroke="none">
<path fill="#E30048" d="M0 640 l0 -640 483 0 c412 0 491 2 537 16 101 30 180 99 227 199 24
51 28 73 28 145 0 72 -4 94 -28 145 -48 102 -135 175 -245 204 l-42 12 0 167
0 167 -113 113 -112 112 -368 0 -367 0 0 -640z m640 440 l0 -120 120 0 120 0
0 -120 0 -119 -42 -12 c-102 -27 -190 -96 -234 -181 l-24 -48 -186 0 c-183 0
-185 0 -209 -25 -24 -23 -25 -29 -25 -160 l0 -135 228 0 228 0 39 -40 39 -40
-307 0 -307 0 0 560 0 560 280 0 280 0 0 -120z m155 30 l69 -70 -72 0 -72 0 0
70 c0 39 1 70 3 70 1 0 34 -31 72 -70z m214 -487 c66 -21 125 -72 159 -137 38
-73 38 -179 0 -251 -53 -101 -134 -150 -248 -150 -62 1 -84 5 -126 27 -171 90
-205 308 -68 445 78 78 175 101 283 66z"/>
<path d="M415 866 c-101 -44 -125 -178 -46 -257 65 -65 157 -65 222 0 124 124
-15 327 -176 257z"/>
<path d="M897 462 l-97 -97 60 -60 60 -59 100 99 100 100 -57 57 c-32 32 -60
58 -63 58 -3 0 -49 -44 -103 -98z"/>
<path d="M760 260 l0 -60 62 0 62 0 -59 60 c-33 33 -61 60 -62 60 -2 0 -3 -27
-3 -60z"/>
</g>
</svg>
