<svg width="7" height="11" viewBox="0 0 7 11" fill="none" xmlns="http://www.w3.org/2000/svg">
<path d="M0.241988 0.310675C0.0971996 0.466513 0.0173518 0.676428 0.0200044 0.894258C0.022657 1.11209 0.107593 1.32 0.256134 1.47226L4.17821 5.49148L0.35517 9.60502C0.214548 9.76169 0.138221 9.97016 0.142626 10.1855C0.147031 10.4009 0.231818 10.6059 0.378723 10.7565C0.525629 10.907 0.7229 10.991 0.928049 10.9904C1.1332 10.9898 1.32981 10.9046 1.47554 10.7531L5.84461 6.05207C5.9894 5.89623 6.06924 5.68632 6.06659 5.46849C6.06394 5.25066 5.979 5.04275 5.83046 4.89048L1.34821 0.297204C1.19962 0.144985 0.999616 0.060892 0.79217 0.0634181C0.584723 0.0659443 0.386822 0.154883 0.241988 0.310675Z" fill="white"/>
</svg>
