<svg width="166" height="189" viewBox="0 0 166 189" fill="none" xmlns="http://www.w3.org/2000/svg">
<path fill-rule="evenodd" clip-rule="evenodd" d="M100.57 173.123C97.5406 172.768 91.4826 170.407 91.4826 163.803C91.4826 155.548 99.5011 154.517 100.57 154.483C100.671 154.479 100.855 154.499 101.104 154.526C103.285 154.759 110.431 155.524 110.191 145.961C109.977 137.44 103.51 136.375 100.57 136.375C91.0372 136.641 73.124 144.012 72.6964 165.103C73.1418 176.11 83.9215 188.537 106.182 188.537C115.756 188.537 138.444 181.347 151.273 154.483C154.607 147.5 160.36 133.946 162.765 117.734C165.17 101.522 166.186 84.3089 165.972 77.4917C165.972 63.3781 165.92 47.5875 156.085 32.462C143.79 13.5551 125.158 0.285129 91.4826 0.0188341C57.8071 -0.247461 42.3779 2.1491 21.0682 17.5942C-1.0931 33.6566 -0.363854 54.8725 0.181362 70.7344C0.195045 71.1325 0.208613 71.5272 0.221699 71.9184C0.756231 87.896 12.7832 97.762 22.9393 100.691C33.0954 103.621 36.9604 104.419 49.7891 104.686C60.0521 104.899 83.821 102.112 94.4226 100.691C104.579 99.271 125.212 100.691 126.494 117.734V140.902C126.316 146.139 125.105 158.051 121.684 163.803C117.407 170.993 108.32 173.123 106.182 173.123H100.57ZM133.361 73.4308C138.528 73.4308 142.716 69.2579 142.716 64.1105C142.716 58.963 138.528 54.7902 133.361 54.7902C128.195 54.7902 124.007 58.963 124.007 64.1105C124.007 69.2579 128.195 73.4308 133.361 73.4308Z" fill="#DEDEDE"/>
</svg>
