<svg width="20" height="5" viewBox="0 0 20 5" fill="none" xmlns="http://www.w3.org/2000/svg">
<path d="M10 5C10.663 5 11.2989 4.73661 11.7678 4.26777C12.2366 3.79893 12.5 3.16304 12.5 2.5C12.5 1.83696 12.2366 1.20107 11.7678 0.732234C11.2989 0.263393 10.663 0 10 0C9.33696 0 8.70107 0.263393 8.23223 0.732234C7.76339 1.20107 7.5 1.83696 7.5 2.5C7.5 3.16304 7.76339 3.79893 8.23223 4.26777C8.70107 4.73661 9.33696 5 10 5ZM2.5 5C3.16304 5 3.79893 4.73661 4.26777 4.26777C4.73661 3.79893 5 3.16304 5 2.5C5 1.83696 4.73661 1.20107 4.26777 0.732234C3.79893 0.263393 3.16304 0 2.5 0C1.83696 0 1.20107 0.263393 0.732233 0.732234C0.263392 1.20107 0 1.83696 0 2.5C0 3.16304 0.263392 3.79893 0.732233 4.26777C1.20107 4.73661 1.83696 5 2.5 5ZM17.5 5C18.163 5 18.7989 4.73661 19.2678 4.26777C19.7366 3.79893 20 3.16304 20 2.5C20 1.83696 19.7366 1.20107 19.2678 0.732234C18.7989 0.263393 18.163 0 17.5 0C16.837 0 16.2011 0.263393 15.7322 0.732234C15.2634 1.20107 15 1.83696 15 2.5C15 3.16304 15.2634 3.79893 15.7322 4.26777C16.2011 4.73661 16.837 5 17.5 5Z" fill="#E30048"/>
</svg>
