<svg width="18" height="18" viewBox="0 0 18 18" fill="none" xmlns="http://www.w3.org/2000/svg">
<path d="M1 5V3C1 2.46957 1.21071 1.96086 1.58579 1.58579C1.96086 1.21071 2.46957 1 3 1H5M1 13V15C1 15.5304 1.21071 16.0391 1.58579 16.4142C1.96086 16.7893 2.46957 17 3 17H5M13 1H15C15.5304 1 16.0391 1.21071 16.4142 1.58579C16.7893 1.96086 17 2.46957 17 3V5M13 17H15C15.5304 17 16.0391 16.7893 16.4142 16.4142C16.7893 16.0391 17 15.5304 17 15V13M13 13L10.5 10.5M5 8C5 8.39397 5.0776 8.78407 5.22836 9.14805C5.37913 9.51203 5.6001 9.84274 5.87868 10.1213C6.15726 10.3999 6.48797 10.6209 6.85195 10.7716C7.21593 10.9224 7.60603 11 8 11C8.39397 11 8.78407 10.9224 9.14805 10.7716C9.51203 10.6209 9.84274 10.3999 10.1213 10.1213C10.3999 9.84274 10.6209 9.51203 10.7716 9.14805C10.9224 8.78407 11 8.39397 11 8C11 7.20435 10.6839 6.44129 10.1213 5.87868C9.55871 5.31607 8.79565 5 8 5C7.20435 5 6.44129 5.31607 5.87868 5.87868C5.31607 6.44129 5 7.20435 5 8Z" stroke="white" stroke-width="2" stroke-linecap="round" stroke-linejoin="round"/>
</svg>
