<svg width="10" height="10" viewBox="0 0 10 10" fill="none" xmlns="http://www.w3.org/2000/svg">
<path fill-rule="evenodd" clip-rule="evenodd" d="M4.87892 0.650145C5.29504 0.234021 5.85943 0.000244141 6.44792 0.000244141C7.0364 0.000244141 7.60079 0.234021 8.01692 0.650145C8.43304 1.06627 8.66682 1.63066 8.66682 2.21915C8.66682 2.80763 8.43304 3.37202 8.01692 3.78815L4.17892 7.62615C4.06042 7.74469 3.91974 7.83872 3.7649 7.90289C3.61006 7.96706 3.44409 8.00011 3.27648 8.00014C2.93798 8.0002 2.61332 7.86579 2.37392 7.62648C2.13451 7.38716 1.99998 7.06255 1.99992 6.72405C1.99986 6.38554 2.13427 6.06088 2.37358 5.82148L6.09692 2.09748L6.56892 2.56948L2.84492 6.29281C2.78832 6.34941 2.74342 6.4166 2.71279 6.49056C2.68216 6.56451 2.66639 6.64377 2.66639 6.72381C2.66639 6.80386 2.68216 6.88312 2.71279 6.95707C2.74342 7.03102 2.78832 7.09821 2.84492 7.15481C2.90152 7.21141 2.96871 7.25631 3.04266 7.28694C3.11661 7.31757 3.19587 7.33334 3.27592 7.33334C3.35596 7.33334 3.43522 7.31757 3.50917 7.28694C3.58312 7.25631 3.65032 7.21141 3.70692 7.15481L7.54492 3.31681C7.68906 3.17266 7.80341 3.00154 7.88142 2.8132C7.95943 2.62486 7.99958 2.423 7.99958 2.21915C7.99958 2.01529 7.95943 1.81343 7.88142 1.62509C7.80341 1.43675 7.68906 1.26563 7.54492 1.12148C7.40077 0.977331 7.22964 0.862987 7.0413 0.784975C6.85296 0.706962 6.6511 0.66681 6.44725 0.66681C6.24339 0.66681 6.04153 0.706962 5.8532 0.784975C5.66486 0.862987 5.49373 0.977331 5.34958 1.12148L1.39758 5.07415C0.939131 5.54403 0.684315 6.17565 0.688357 6.83211C0.692399 7.48858 0.954974 8.11702 1.41918 8.58122C1.88338 9.04542 2.51181 9.30799 3.16828 9.31204C3.82475 9.31608 4.45637 9.06126 4.92625 8.60281L8.76425 4.76415L9.23625 5.23615L5.39758 9.07415C4.80102 9.64925 4.00255 9.9672 3.17395 9.95958C2.34536 9.95197 1.55286 9.6194 0.966977 9.03342C0.381091 8.44745 0.0486373 7.6549 0.041145 6.82631C0.0336528 5.99771 0.351721 5.19928 0.926915 4.60281L4.87892 0.650145Z" fill="#E30048"/>
</svg>
