<svg width="22" height="20" viewBox="0 0 22 20" fill="none" xmlns="http://www.w3.org/2000/svg">
<path d="M13 16.315C11.9032 15.7924 10.9603 14.9949 10.263 14H2V2H20V4.264C20.8102 4.83235 21.4916 5.5649 22 6.414V2C21.9984 1.47005 21.7872 0.962265 21.4125 0.587535C21.0377 0.212805 20.5299 0.00158273 20 0H2C1.47005 0.00158273 0.962265 0.212805 0.587535 0.587535C0.212805 0.962265 0.00158273 1.47005 0 2V14C0.00158273 14.5299 0.212805 15.0377 0.587535 15.4125C0.962265 15.7872 1.47005 15.9984 2 16H9V18H7V20H15V18H13V16.315Z" fill="#E30048"/>
<path d="M16 4C14.8133 4 13.6533 4.35189 12.6666 5.01118C11.6799 5.67047 10.9109 6.60754 10.4567 7.7039C10.0026 8.80026 9.88378 10.0067 10.1153 11.1705C10.3468 12.3344 10.9182 13.4035 11.7574 14.2426C12.5965 15.0818 13.6656 15.6532 14.8295 15.8847C15.9933 16.1162 17.1997 15.9974 18.2961 15.5433C19.3925 15.0892 20.3295 14.3201 20.9888 13.3334C21.6481 12.3467 22 11.1867 22 10C22 8.4087 21.3679 6.88258 20.2426 5.75736C19.1174 4.63214 17.5913 4 16 4ZM16 14C15.2089 14 14.4355 13.7654 13.7777 13.3259C13.1199 12.8864 12.6072 12.2616 12.3045 11.5307C12.0017 10.7998 11.9225 9.99556 12.0769 9.21964C12.2312 8.44371 12.6122 7.73098 13.1716 7.17157C13.731 6.61216 14.4437 6.2312 15.2196 6.07686C15.9956 5.92252 16.7998 6.00173 17.5307 6.30448C18.2616 6.60723 18.8864 7.11992 19.3259 7.77772C19.7654 8.43552 20 9.20887 20 10C19.9987 11.0605 19.5768 12.0771 18.827 12.827C18.0771 13.5768 17.0605 13.9987 16 14Z" fill="#E30048"/>
<path d="M16 11C16.5523 11 17 10.5523 17 10C17 9.44772 16.5523 9 16 9C15.4477 9 15 9.44772 15 10C15 10.5523 15.4477 11 16 11Z" fill="#E30048"/>
</svg>
