<svg width="20" height="20" viewBox="0 0 20 20" fill="none" xmlns="http://www.w3.org/2000/svg">
<path d="M19.41 9.58L10.41 0.580001C10.035 0.20808 9.52815 -0.000420824 9 6.37713e-07H2C1.46957 6.37713e-07 0.96086 0.210714 0.585787 0.585787C0.210714 0.96086 6.2793e-07 1.46957 6.2793e-07 2V9C-0.000208492 9.26391 0.0518167 9.52526 0.153078 9.76897C0.254338 10.0127 0.402832 10.2339 0.590001 10.42L9.59 19.42C9.96498 19.7919 10.4719 20.0004 11 20C11.5296 19.9978 12.0367 19.7856 12.41 19.41L19.41 12.41C19.7856 12.0367 19.9978 11.5296 20 11C20.0002 10.7361 19.9482 10.4747 19.8469 10.231C19.7457 9.98732 19.5972 9.76606 19.41 9.58ZM11 18L2 9V2H9L18 11M4.5 3C4.79667 3 5.08668 3.08797 5.33336 3.2528C5.58003 3.41762 5.77229 3.65189 5.88582 3.92598C5.99935 4.20006 6.02906 4.50166 5.97118 4.79264C5.9133 5.08361 5.77044 5.35088 5.56066 5.56066C5.35088 5.77044 5.08361 5.9133 4.79264 5.97118C4.50166 6.02906 4.20006 5.99935 3.92598 5.88582C3.65189 5.77229 3.41762 5.58003 3.2528 5.33336C3.08797 5.08668 3 4.79667 3 4.5C3 4.10218 3.15804 3.72064 3.43934 3.43934C3.72064 3.15804 4.10218 3 4.5 3Z" fill="#E30048"/>
</svg>
