<svg width="27" height="27" viewBox="0 0 27 27" fill="none" xmlns="http://www.w3.org/2000/svg">
<path d="M13.5 26C15.9723 26 18.389 25.2669 20.4446 23.8934C22.5002 22.5199 24.1024 20.5676 25.0485 18.2835C25.9946 15.9995 26.2421 13.4861 25.7598 11.0614C25.2775 8.63661 24.087 6.40933 22.3388 4.66117C20.5907 2.91301 18.3634 1.7225 15.9386 1.24019C13.5139 0.757874 11.0005 1.00542 8.71645 1.95151C6.43238 2.89761 4.48015 4.49976 3.10663 6.55538C1.73311 8.61099 1 11.0277 1 13.5C1 15.5667 1.5 17.5139 2.38889 19.2319L1 26L7.76805 24.6111C9.48472 25.4986 11.4347 26 13.5 26Z" stroke="#E30048" stroke-width="2" stroke-linecap="round" stroke-linejoin="round"/>
</svg>
