<svg width="25" height="22" viewBox="0 0 25 22" fill="none" xmlns="http://www.w3.org/2000/svg">
<path d="M18.414 0L17 1.3778L21.168 5.42345H11.5C10.0418 5.425 8.64377 5.99053 7.61267 6.99595C6.58156 8.00137 6.00159 9.36457 6 10.7865C6 13.7439 8.468 16.1495 11.5 16.1495H12V14.1993H11.5C9.57 14.1993 8 12.6684 8 10.7865C8 8.90453 9.57 7.37364 11.5 7.37364H21.172L17.008 11.4339L18.422 12.8127L25 6.39855L18.414 0ZM0 0.548001V22H22V12.2491L20 14.1993V20.0498H2V2.49818H12.854L14.854 0.548001H0Z" fill="#E30048"/>
</svg>
