<svg width="12" height="12" viewBox="0 0 12 12" fill="none" xmlns="http://www.w3.org/2000/svg">
<path fill-rule="evenodd" clip-rule="evenodd" d="M0.952251 1.96498C1.56115 1.31521 2.38689 0.950195 3.24788 0.950195C4.10887 0.950195 4.93461 1.31521 5.54352 1.96498C5.79233 2.2296 6.21361 2.2296 6.46242 1.96498C7.06877 1.32078 7.8888 0.95804 8.7443 0.955594C9.5998 0.953148 10.4216 1.31119 11.0312 1.95192C11.6408 2.59264 11.9888 3.46427 11.9997 4.37738C12.0106 5.29049 11.6835 6.1713 11.0894 6.82839L6.46177 11.7681C6.33999 11.898 6.17484 11.971 6.00264 11.971C5.83045 11.971 5.6653 11.898 5.54352 11.7681L0.915885 6.82908C0.322358 6.17568 -0.0065829 5.29931 9.9868e-05 4.38922C0.00678264 3.47913 0.349203 2.60836 0.952251 1.96498Z" fill="#E30048"/>
</svg>
