<svg width="31" height="26" viewBox="0 0 31 26" fill="none" xmlns="http://www.w3.org/2000/svg">
<path fill-rule="evenodd" clip-rule="evenodd" d="M2.45998 2.39404C4.03298 0.861138 6.16615 0 8.39037 0C10.6146 0 12.7478 0.861138 14.3208 2.39404C14.6283 2.69277 15.0242 3.06454 15.5085 3.50935C15.9917 3.06454 16.387 2.69277 16.6946 2.39404C18.261 0.874265 20.3794 0.0185062 22.5894 0.0127364C24.7995 0.00696664 26.9226 0.851653 28.4973 2.36323C30.072 3.87481 30.9712 5.93113 30.9993 8.08532C31.0275 10.2395 30.1824 12.3175 28.6476 13.8677L16.6929 25.5212C16.3783 25.8278 15.9517 26 15.5068 26C15.062 26 14.6354 25.8278 14.3208 25.5212L2.36604 13.8693C0.832759 12.3278 -0.0170058 10.2603 0.000257992 8.11325C0.0175218 5.96619 0.902107 3.91191 2.45998 2.39404Z" fill="#E30048"/>
</svg>
