<svg width="31" height="26" viewBox="0 0 31 26" fill="none" xmlns="http://www.w3.org/2000/svg">
<path fill-rule="evenodd" clip-rule="evenodd" d="M27.1512 12.5248C28.3351 11.3524 28.9928 9.76951 28.9796 8.12433C28.9665 6.47916 28.2834 4.90647 27.0809 3.75225C26.4854 3.18074 25.7803 2.72916 25.0059 2.42331C24.2314 2.11745 23.4027 1.96331 22.5672 1.96967C20.8797 1.98253 19.2665 2.64841 18.0826 3.82081C17.7611 4.13423 17.3525 4.51894 16.8569 4.97493L15.4789 6.24004L14.1008 4.97493C13.6041 4.51785 13.195 4.13315 12.8735 3.82081C11.6802 2.6575 10.0618 2.00396 8.37433 2.00396C6.68682 2.00396 5.06843 2.6575 3.87518 3.82081C1.41714 6.21882 1.38868 10.0958 3.78476 12.5052L15.4789 23.906L27.1512 12.5248ZM2.45361 2.43653C3.23105 1.67839 4.15408 1.07698 5.16997 0.666667C6.18586 0.256351 7.27471 0.0451617 8.37433 0.0451617C9.47395 0.0451617 10.5628 0.256351 11.5787 0.666667C12.5946 1.07698 13.5176 1.67839 14.2951 2.43653C14.5998 2.73472 14.9944 3.10582 15.4789 3.54983C15.9611 3.10582 16.3557 2.73417 16.6627 2.4349C18.2207 0.892543 20.3434 0.0167697 22.5638 0.00023833C24.7842 -0.016293 26.9204 0.827771 28.5024 2.34675C30.0845 3.86572 30.9828 5.93518 30.9998 8.09987C31.0167 10.2646 30.1509 12.3472 28.5929 13.8895L16.6627 25.5221C16.3487 25.8281 15.9229 26 15.4789 26C15.0349 26 14.6091 25.8281 14.2951 25.5221L2.36151 13.8879C0.831168 12.3492 -0.0169733 10.2854 0.000257499 8.14217C0.0174883 5.99898 0.898708 3.9484 2.45361 2.43326V2.43653Z" fill="#E30048"/>
</svg>
