<svg width="6" height="9" viewBox="0 0 6 9" fill="none" xmlns="http://www.w3.org/2000/svg">
<path d="M3 0.617188C1.34143 0.617188 0 1.87156 0 3.42248C0 5.52646 3 8.63232 3 8.63232C3 8.63232 6 5.52646 6 3.42248C6 1.87156 4.65857 0.617188 3 0.617188ZM3 4.42438C2.71584 4.42438 2.44332 4.31882 2.24239 4.13093C2.04145 3.94304 1.92857 3.6882 1.92857 3.42248C1.92857 3.15677 2.04145 2.90193 2.24239 2.71404C2.44332 2.52615 2.71584 2.42059 3 2.42059C3.28416 2.42059 3.55668 2.52615 3.75761 2.71404C3.95855 2.90193 4.07143 3.15677 4.07143 3.42248C4.07143 3.6882 3.95855 3.94304 3.75761 4.13093C3.55668 4.31882 3.28416 4.42438 3 4.42438Z" fill="#E30048"/>
</svg>
