<svg width="20" height="20" viewBox="0 0 20 20" fill="none" xmlns="http://www.w3.org/2000/svg">
<path d="M8 1.26154C9.333 1.26032 10.6364 1.65449 11.7454 2.39418C12.8543 3.13387 13.719 4.18585 14.2299 5.41703C14.7409 6.64822 14.8752 8.00329 14.6159 9.31083C14.3566 10.6184 13.7153 11.8196 12.7731 12.7626C11.831 13.7056 10.6303 14.348 9.32303 14.6085C8.01573 14.869 6.66053 14.7359 5.42888 14.2261C4.19723 13.7163 3.14446 12.8526 2.40376 11.7443C1.66306 10.6361 1.2677 9.333 1.2677 8C1.27578 6.2164 1.98747 4.50807 3.2481 3.24629C4.50873 1.9845 6.21641 1.27125 8 1.26154ZM8 0C6.41775 0 4.87103 0.469192 3.55544 1.34824C2.23985 2.22729 1.21447 3.47672 0.608967 4.93853C0.00346639 6.40034 -0.15496 8.00887 0.153721 9.56072C0.462403 11.1126 1.22433 12.538 2.34315 13.6569C3.46197 14.7757 4.88743 15.5376 6.43928 15.8463C7.99113 16.155 9.59966 15.9965 11.0615 15.391C12.5233 14.7855 13.7727 13.7602 14.6518 12.4446C15.5308 11.129 16 9.58225 16 8C16 5.87827 15.1571 3.84344 13.6569 2.34315C12.1566 0.842854 10.1217 0 8 0Z" fill="#E30048"/>
<path d="M19.808 18.8786L14.9383 14L14 14.9271L18.8697 19.8057C18.9309 19.867 19.0036 19.9157 19.0837 19.949C19.1638 19.9824 19.2497 19.9997 19.3365 20C19.4234 20.0003 19.5094 19.9836 19.5897 19.9508C19.67 19.918 19.7431 19.8698 19.8047 19.809C19.8663 19.7481 19.9153 19.6757 19.9488 19.596C19.9823 19.5163 19.9997 19.4309 20 19.3445C20.0003 19.2581 19.9835 19.1725 19.9506 19.0925C19.9176 19.0126 19.8692 18.9399 19.808 18.8786Z" fill="#E30048"/>
</svg>
