<svg width="31" height="35" viewBox="0 0 31 35" fill="none" xmlns="http://www.w3.org/2000/svg">
<path fill-rule="evenodd" clip-rule="evenodd" d="M18.53 32.1387C17.9719 32.0727 16.8557 31.6344 16.8557 30.4084C16.8557 28.8759 18.3331 28.6845 18.53 28.6782C18.5487 28.6776 18.5826 28.6813 18.6284 28.6862C19.0303 28.7295 20.347 28.8715 20.3028 27.0963C20.2634 25.5144 19.0717 25.3166 18.53 25.3166C16.7736 25.3661 13.4731 26.7345 13.3943 30.6497C13.4764 32.693 15.4626 35 19.5641 35C21.328 35 25.5083 33.6653 27.872 28.6782C28.4864 27.3819 29.5463 24.8658 29.9895 21.8562C30.4327 18.8466 30.6199 15.6511 30.5805 14.3856C30.5805 11.7655 30.5708 8.83416 28.7586 6.02625C26.4934 2.51636 23.0605 0.0529314 16.8557 0.00349636C10.651 -0.0459387 7.80815 0.398959 3.88183 3.26619C-0.201405 6.24802 -0.0670403 10.1866 0.0334161 13.1312C0.0359372 13.2051 0.038437 13.2783 0.0408482 13.351C0.139336 16.3171 2.3553 18.1486 4.22657 18.6924C6.09784 19.2361 6.80996 19.3845 9.17367 19.4339C11.0646 19.4734 15.4441 18.956 17.3974 18.6924C19.2687 18.4287 23.0703 18.6924 23.3067 21.8562V26.157C23.2738 27.1292 23.0506 29.3406 22.4203 30.4084C21.6324 31.7432 19.9581 32.1387 19.5641 32.1387H18.53ZM24.5723 13.4463C25.5242 13.4463 26.2958 12.6716 26.2958 11.7161C26.2958 10.7605 25.5242 9.98584 24.5723 9.98584C23.6204 9.98584 22.8488 10.7605 22.8488 11.7161C22.8488 12.6716 23.6204 13.4463 24.5723 13.4463Z" fill="#E30048"/>
</svg>
