<svg width="10" height="10" viewBox="0 0 10 10" fill="none" xmlns="http://www.w3.org/2000/svg">
<path fill-rule="evenodd" clip-rule="evenodd" d="M3.59375 1.875V0.9375H6.40625V1.875H3.59375ZM2.65625 1.875V0.625C2.65625 0.45924 2.7221 0.300269 2.83931 0.183058C2.95652 0.065848 3.11549 0 3.28125 0L6.71875 0C6.88451 0 7.04348 0.065848 7.16069 0.183058C7.2779 0.300269 7.34375 0.45924 7.34375 0.625V1.875H8.90625C9.03057 1.875 9.1498 1.92439 9.23771 2.01229C9.32561 2.1002 9.375 2.21943 9.375 2.34375C9.375 2.46807 9.32561 2.5873 9.23771 2.67521C9.1498 2.76311 9.03057 2.8125 8.90625 2.8125H8.67813L8.21375 8.84562C8.18966 9.15965 8.04791 9.45301 7.81685 9.66704C7.58579 9.88106 7.28245 9.99998 6.9675 10H3.0325C2.71755 9.99998 2.41421 9.88106 2.18315 9.66704C1.95209 9.45301 1.81034 9.15965 1.78625 8.84562L1.32187 2.8125H1.09375C0.96943 2.8125 0.850201 2.76311 0.762294 2.67521C0.674386 2.5873 0.625 2.46807 0.625 2.34375C0.625 2.21943 0.674386 2.1002 0.762294 2.01229C0.850201 1.92439 0.96943 1.875 1.09375 1.875H2.65625ZM2.2625 2.8125H7.7375L7.27875 8.77375C7.27277 8.85223 7.23739 8.92557 7.17969 8.9791C7.12199 9.03263 7.04621 9.06241 6.9675 9.0625H3.0325C2.95379 9.06241 2.87801 9.03263 2.82031 8.9791C2.76261 8.92557 2.72723 8.85223 2.72125 8.77375L2.2625 2.8125Z" fill="#989692"/>
</svg>
