<svg width="337" height="273" viewBox="0 0 337 273" fill="none" xmlns="http://www.w3.org/2000/svg">
<path fill-rule="evenodd" clip-rule="evenodd" d="M337 0H0V273H337V0ZM174.377 185.683C174.377 190.307 178.573 191.96 180.672 192.209H184.56C186.041 192.209 192.336 190.717 195.299 185.683C197.669 181.656 198.508 173.316 198.632 169.649V153.429C197.743 141.497 183.449 140.503 176.413 141.497C169.069 142.491 152.602 144.443 145.492 144.294C136.605 144.107 133.928 143.548 126.892 141.497C119.856 139.446 111.524 132.539 111.154 121.352C111.145 121.082 111.135 120.81 111.126 120.536C111.126 120.532 111.126 120.527 111.126 120.523C110.748 109.418 110.243 94.564 125.595 83.3182C140.358 72.5046 151.047 70.8267 174.377 71.0132C197.706 71.1996 210.614 80.4903 219.131 93.7276C225.945 104.317 225.981 115.373 225.981 125.254C226.129 130.027 225.425 142.079 223.759 153.429C222.093 164.78 218.107 174.269 215.797 179.158C206.91 197.966 191.192 203 184.56 203C169.138 203 161.671 194.299 161.362 186.593C161.658 171.827 174.068 166.666 180.672 166.48C182.708 166.48 187.189 167.226 187.337 173.192C187.504 179.887 182.553 179.351 181.042 179.188C180.869 179.169 180.742 179.156 180.672 179.158C179.932 179.182 174.377 179.904 174.377 185.683ZM216.538 115.186C216.538 118.79 213.637 121.712 210.057 121.712C206.478 121.712 203.577 118.79 203.577 115.186C203.577 111.583 206.478 108.661 210.057 108.661C213.637 108.661 216.538 111.583 216.538 115.186Z" fill="#DEDEDE"/>
<path fill-rule="evenodd" clip-rule="evenodd" d="M180.672 192.209C178.573 191.96 174.377 190.307 174.377 185.683C174.377 179.904 179.932 179.182 180.672 179.158C180.742 179.156 180.869 179.169 181.042 179.188C182.553 179.351 187.504 179.887 187.337 173.192C187.189 167.226 182.708 166.48 180.672 166.48C174.068 166.666 161.658 171.827 161.362 186.593C161.671 194.299 169.138 203 184.56 203C191.192 203 206.91 197.966 215.797 179.158C218.107 174.269 222.093 164.78 223.759 153.429C225.425 142.079 226.129 130.027 225.981 125.254C225.981 115.373 225.945 104.317 219.131 93.7276C210.614 80.4903 197.706 71.1996 174.377 71.0132C151.047 70.8267 140.358 72.5046 125.595 83.3182C110.243 94.564 110.748 109.418 111.126 120.523L111.126 120.536C111.135 120.81 111.145 121.082 111.154 121.352C111.524 132.539 119.856 139.446 126.892 141.497C133.928 143.548 136.605 144.107 145.492 144.294C152.602 144.443 169.069 142.491 176.413 141.497C183.449 140.503 197.743 141.497 198.632 153.429V169.649C198.508 173.316 197.669 181.656 195.299 185.683C192.336 190.717 186.041 192.209 184.56 192.209H180.672ZM210.057 121.712C213.637 121.712 216.538 118.79 216.538 115.186C216.538 111.583 213.637 108.661 210.057 108.661C206.478 108.661 203.577 111.583 203.577 115.186C203.577 118.79 206.478 121.712 210.057 121.712Z" fill="#AAAAAA"/>
</svg>
