<svg width="57" height="54" viewBox="0 0 57 54" fill="none" xmlns="http://www.w3.org/2000/svg">
<path d="M56.333 0.693796C57.2223 1.63102 57.2223 3.14499 56.333 4.08221L40.5671 20.6986L37.3529 17.3101L53.1072 0.693796C53.9966 -0.231265 55.4445 -0.231265 56.333 0.693796ZM39.4847 45.7846C34.9818 50.8434 29.6696 54.303 22.9434 53.979C18.7482 53.7749 14.5077 52.9098 10.8141 50.819C5.06881 47.5514 0.976787 41.267 0.155907 34.4433C-0.676523 27.5466 1.84304 19.6171 7.2691 15.52C12.1597 11.8319 19.1706 8.29927 25.3491 9.78892C27.0478 10.198 28.6664 11.3993 29.168 13.153C29.5558 14.5228 29.2819 16.2287 28.9511 17.9711C25.8507 19.7857 22.9326 23.1975 22.4079 29.1804C22.2025 31.5839 20.8693 32.7973 20.6292 32.9893C19.2498 33.89 18.6806 35.6081 19.1591 37.2428C19.626 38.8167 21.0624 39.8373 22.6241 39.8373C22.6926 39.8373 22.7726 39.8373 22.8411 39.826C32.28 39.2493 37.4214 32.8928 39.8378 28.6159C45.8909 32.0998 43.7484 41.003 39.4847 45.7846ZM12.0913 38.6838C12.0913 36.9301 10.7457 35.5126 9.08164 35.5126C7.4176 35.5126 6.08357 36.9301 6.08357 38.6838C6.08357 40.4384 7.42833 41.8559 9.09319 41.8559C10.7572 41.8559 12.0913 40.4262 12.0913 38.6838ZM12.0913 28.0269C12.0913 26.2732 10.7457 24.8557 9.08164 24.8557C7.4176 24.8557 6.07202 26.2732 6.07202 28.0269C6.07202 29.7815 7.4176 31.1991 9.08164 31.1991C10.7457 31.1991 12.0913 29.7815 12.0913 28.0269ZM15.9902 21.3231C17.6543 21.3231 18.999 19.9055 18.999 18.1509C18.999 16.3972 17.6543 14.9797 15.9902 14.9797C14.3254 14.9797 12.9806 16.3972 12.9806 18.1509C12.9806 19.9055 14.3254 21.3231 15.9902 21.3231ZM21.1086 46.1694C21.1086 44.4148 19.763 42.9973 18.0989 42.9973C16.4341 42.9973 15.0893 44.4148 15.0893 46.1694C15.0893 47.9231 16.4341 49.3416 18.0989 49.3416C19.763 49.3416 21.1086 47.9231 21.1086 46.1694ZM33.4424 45.5805C33.4424 43.8268 32.0976 42.4084 30.4336 42.4084C28.7687 42.4084 27.424 43.8268 27.424 45.5805C27.424 47.3351 28.7687 48.7526 30.4336 48.7526C32.0976 48.7526 33.4424 47.3351 33.4424 45.5805ZM25.953 29.5175C25.5652 34.0342 22.6356 36.0893 22.6356 36.0893C34.4349 35.3684 38.2307 23.558 38.2307 23.558L34.8218 19.9655C34.8333 19.9655 26.7623 20.2061 25.953 29.5175Z" fill="#E30048"/>
</svg>
