<svg width="27" height="34" viewBox="0 0 27 34" fill="none" xmlns="http://www.w3.org/2000/svg">
<path d="M10.5517 15.7696L12.054 17.916C12.0906 17.9685 12.0966 18.0363 12.0693 18.0944C12.0419 18.1525 11.9858 18.1911 11.9218 18.1957L3.09051 18.8658L3.08634 18.5103L11.9538 18.9699C12.0155 18.9732 12.0711 19.008 12.1008 19.0624C12.1305 19.1167 12.1296 19.1827 12.0985 19.2366L10.7961 21.5052L10.5415 21.2696L12.643 19.8184C12.6959 19.7822 12.764 19.7771 12.8216 19.8049C12.8791 19.8328 12.9171 19.8895 12.9213 19.9536L13.4871 28.6345L13.1323 28.634L13.7246 19.9578C13.7288 19.8937 13.7673 19.8365 13.8257 19.8091C13.8837 19.7812 13.9518 19.7873 14.0047 19.8245L16.3873 21.5187L16.1373 21.7641L14.4194 19.2255C14.3837 19.1725 14.379 19.1047 14.4068 19.047C14.4351 18.9899 14.4913 18.9518 14.5548 18.9476L16.1781 18.8407L16.4856 18.8203L16.5134 18.8184C16.6113 18.8119 16.6957 18.8863 16.7022 18.9843C16.7087 19.0828 16.6345 19.1674 16.5366 19.1739L16.4763 19.1781L16.4527 18.8226L16.6911 18.8068L17.0431 18.7836L19.6422 18.6121L23.1254 18.3825L23.1259 18.738L14.6907 18.2078C14.6285 18.2041 14.5733 18.1678 14.5446 18.1125C14.5158 18.0573 14.5177 17.9908 14.5502 17.9378L15.9007 15.7069L16.1554 15.9443L13.956 17.5154C13.9041 17.5526 13.8354 17.5591 13.7775 17.5317C13.7195 17.5043 13.6805 17.4476 13.6759 17.3835L13.0284 8.50839L13.3828 8.50421L12.9431 17.3514C12.9398 17.4141 12.9041 17.4708 12.848 17.5001C12.7923 17.5294 12.7256 17.527 12.6718 17.4936L10.3124 16.0229L10.5517 15.7696ZM10.2609 15.9741C10.2122 15.9048 10.2192 15.811 10.2771 15.7491C10.3351 15.6878 10.4283 15.6757 10.5002 15.7203L12.8596 17.1911L12.5883 17.3333L13.028 8.48655C13.0326 8.39268 13.1096 8.31833 13.2033 8.3174C13.2974 8.31601 13.3758 8.3885 13.3828 8.48237L14.0302 17.3574L13.7501 17.2255L15.9494 15.6544C16.0181 15.6051 16.1118 15.6111 16.1735 15.6688C16.2351 15.7264 16.2481 15.8193 16.2045 15.8918L14.8539 18.1223L14.7129 17.8523L23.1481 18.3825C23.2418 18.3886 23.3146 18.4662 23.3146 18.56C23.3151 18.6539 23.2423 18.732 23.1486 18.738L19.6654 18.9676L17.0663 19.139L16.7143 19.1623L16.4763 19.1781C16.4684 18.8221 16.449 18.8226 16.4527 18.8226L16.5134 18.8184L16.5366 19.1739L16.5088 19.1758L16.2013 19.1962L14.5784 19.3031L14.7139 19.0252L16.4313 21.5642C16.4796 21.6353 16.4698 21.7311 16.4086 21.7915C16.3474 21.8514 16.2514 21.8593 16.1813 21.8091L13.7988 20.1154L14.0789 19.982L13.4871 28.6582C13.4806 28.7516 13.4032 28.8241 13.3095 28.8241C13.2158 28.8241 13.1383 28.7511 13.1323 28.6577L12.5665 19.9769L12.8448 20.1121L10.7428 21.5633C10.6746 21.6102 10.5828 21.6037 10.5216 21.5475C10.4608 21.4908 10.4469 21.3997 10.4882 21.3277L11.7905 19.0587L11.9357 19.3254L3.06825 18.8663C2.97456 18.8612 2.90081 18.7845 2.89942 18.6906C2.8985 18.5963 2.97038 18.5178 3.06407 18.5108L11.8949 17.8407L11.7632 18.1204L10.2609 15.9741Z" fill="#E30048"/>
<path d="M19.2631 8.49421L20.0901 9.62805C20.1207 9.66987 20.1263 9.72517 20.1054 9.77303C20.084 9.82043 20.0386 9.85296 19.9871 9.8576L15.2651 10.3102L15.2559 10.0212L20.0094 10.1731C20.0595 10.1745 20.1054 10.2024 20.13 10.2461C20.155 10.2898 20.1555 10.3437 20.1314 10.3878L19.4575 11.6164L19.2469 11.4292L20.3568 10.6294C20.3994 10.5992 20.4546 10.5937 20.5019 10.6155C20.5488 10.6373 20.5808 10.6829 20.5854 10.7349L20.9797 15.3776L20.6916 15.3827L20.917 10.7308C20.9194 10.6782 20.95 10.6313 20.9968 10.6081C21.0437 10.5844 21.0993 10.5881 21.1424 10.6178L22.4365 11.4998L22.237 11.7033L21.2904 10.3618C21.2607 10.3195 21.2556 10.2642 21.2774 10.2173C21.2992 10.1699 21.3447 10.1383 21.3961 10.1336L22.2644 10.0593L22.4286 10.0453L22.4434 10.0439C22.5232 10.037 22.5932 10.096 22.5997 10.1759C22.6067 10.2558 22.5478 10.326 22.468 10.3325L22.436 10.3353C22.4318 10.3358 22.4276 10.3358 22.4235 10.3358L22.4114 10.0467L22.7268 10.0198L23.6539 9.93985L25.9799 9.7405L25.9859 10.0295L21.4634 9.83483C21.4128 9.83297 21.3669 9.80416 21.3428 9.76002C21.3182 9.71541 21.3192 9.6615 21.3442 9.61736L22.0441 8.40871L22.2551 8.59783L21.0942 9.46215C21.052 9.49329 20.9968 9.49979 20.949 9.47842C20.9013 9.45704 20.8688 9.4115 20.8642 9.35946L20.4236 4.6136L20.712 4.60431L20.5697 9.34691C20.5683 9.39803 20.5395 9.44496 20.495 9.46959C20.45 9.49422 20.3953 9.49329 20.3512 9.4668L19.0725 8.70425L19.2631 8.49421ZM19.0298 8.66568C18.989 8.60992 18.9932 8.53324 19.0396 8.48259C19.0855 8.43148 19.1611 8.42032 19.22 8.45518L20.4992 9.21773L20.2807 9.33808L20.4231 4.59595C20.4254 4.51927 20.4866 4.45747 20.5627 4.45515C20.6392 4.45282 20.7042 4.51044 20.7116 4.58665L21.1517 9.33251L20.9217 9.22981L22.083 8.36503C22.1378 8.32413 22.2143 8.32739 22.2653 8.37339C22.3163 8.41893 22.3284 8.49467 22.2941 8.55415L21.5947 9.76281L21.4755 9.54533L25.9985 9.74004C26.0745 9.74329 26.1353 9.80556 26.1367 9.88177C26.1385 9.95798 26.0806 10.0226 26.0045 10.0291L23.6785 10.2289L22.7514 10.3083L22.436 10.3353L22.4114 10.0467L22.4434 10.0439L22.468 10.3325L22.4532 10.3339L22.289 10.3478L21.4207 10.4227L21.5265 10.1945L22.4731 11.5361C22.5134 11.5932 22.5074 11.6708 22.4583 11.721C22.4091 11.7712 22.3316 11.7786 22.2737 11.7396L20.9801 10.8576L21.2055 10.7447L20.9801 15.3971C20.9764 15.4733 20.9147 15.5333 20.8387 15.5347C20.7626 15.5361 20.6981 15.4785 20.6916 15.4023L20.2974 10.7596L20.5256 10.865L19.4152 11.6643C19.3605 11.7038 19.2858 11.7001 19.2353 11.655C19.1847 11.6104 19.1717 11.5361 19.2042 11.477L19.8781 10.2479L20.0001 10.4626L15.2466 10.3107C15.1705 10.3083 15.1093 10.247 15.1065 10.1703C15.1042 10.0941 15.1617 10.0291 15.2373 10.0216L19.9597 9.5695L19.8568 9.79905L19.0298 8.66568Z" fill="#E30048"/>
<path d="M8.68957 2.94471L9.24321 3.77827C9.26881 3.81684 9.2733 3.86746 9.25444 3.91085C9.23603 3.95375 9.19741 3.98316 9.15296 3.98702L5.9371 4.2758L5.93216 4.01161L9.16463 4.16395C9.20729 4.16588 9.24635 4.19143 9.26701 4.23193C9.28766 4.27194 9.28766 4.32112 9.26656 4.36113L8.79823 5.2511L8.62042 5.07754L9.38196 4.50432C9.41833 4.47684 9.46548 4.47298 9.50544 4.49323C9.54585 4.51348 9.57234 4.55542 9.57548 4.60315L9.80673 7.9909L9.56067 7.99283L9.7515 4.60315C9.75419 4.55542 9.78068 4.513 9.8211 4.49178C9.86106 4.47105 9.90866 4.47491 9.94503 4.50239L10.8184 5.15661L10.6464 5.34029L10.0133 4.35438C9.98813 4.31533 9.98454 4.26471 10.0034 4.2218C10.0227 4.17938 10.0613 4.15045 10.1053 4.14708L10.4524 4.1196L10.6733 4.10224L10.8085 4.09164L10.8188 4.09067C10.8215 4.09067 10.8246 4.09067 10.8278 4.09067L10.8368 4.35486H10.8354L10.8148 4.35679C10.8116 4.35679 10.8089 4.35679 10.8058 4.35679L10.7968 4.0926L11.0119 4.07573L11.9054 4.00486L13.2269 3.90024L13.2291 4.16443L10.1538 3.98316C10.1107 3.98075 10.0721 3.95424 10.0519 3.91326C10.0317 3.87228 10.033 3.8231 10.055 3.78357L10.5404 2.90807L10.7187 3.08307L9.92168 3.70354C9.88576 3.7315 9.83861 3.73632 9.7982 3.71656C9.75779 3.69631 9.73039 3.65437 9.7268 3.60664L9.46548 0.143198L9.71154 0.137895L9.57638 3.5941C9.57459 3.64087 9.54989 3.68329 9.51127 3.70547C9.47266 3.72765 9.42641 3.72572 9.38914 3.70161L8.52523 3.13466L8.68957 2.94471ZM8.48886 3.0985C8.45519 3.0474 8.45923 2.97749 8.49919 2.93121C8.53915 2.88541 8.60381 2.87577 8.65365 2.90855L9.51756 3.47551L9.33032 3.58302L9.46503 0.126806C9.46772 0.0569011 9.5207 0.00145916 9.58581 1.29417e-05C9.65092 -0.00095133 9.7057 0.0520803 9.71109 0.121986L9.97241 3.58543L9.77709 3.489L10.5741 2.86854C10.6217 2.8319 10.6864 2.83575 10.7295 2.87818C10.7726 2.9206 10.7824 2.98954 10.7524 3.04354L10.2665 3.91904L10.1673 3.71897L13.2426 3.90024C13.3077 3.9041 13.3585 3.96147 13.3589 4.03089C13.3598 4.1008 13.3095 4.15913 13.2449 4.16443L11.9238 4.26905L11.0299 4.33944L10.8148 4.35679L10.7968 4.0926L10.8175 4.09067H10.8188L10.8368 4.35486L10.8264 4.35583L10.6913 4.36644L10.4704 4.38379L10.1237 4.41127L10.2158 4.20397L10.8489 5.19035C10.883 5.2429 10.8767 5.31425 10.8345 5.35909C10.7923 5.40441 10.7259 5.41067 10.6774 5.37403L9.80403 4.71982L9.99756 4.61906L9.80673 8.00874C9.80269 8.07816 9.74925 8.13264 9.6846 8.13312C9.61949 8.1336 9.56561 8.08009 9.56067 8.01066L9.32987 4.62243L9.5234 4.72126L8.76186 5.29449C8.71472 5.32968 8.65096 5.32534 8.6083 5.28388C8.56564 5.24242 8.55532 5.17444 8.5836 5.12093L9.05193 4.23096L9.15386 4.42814L5.92138 4.27628C5.85627 4.27291 5.80508 4.2165 5.80374 4.1466C5.80239 4.07669 5.85178 4.01787 5.91644 4.01209L9.13275 3.72331L9.0425 3.93206L8.48886 3.0985Z" fill="#E30048"/>
<path d="M3.49843 27.7354L4.17154 28.6447C4.20446 28.6887 4.21013 28.7466 4.18686 28.7961C4.16359 28.8451 4.11479 28.8787 4.0586 28.8837L0.169189 29.2141L0.161811 28.9123L4.07335 29.0638C4.12727 29.066 4.17665 29.0952 4.20276 29.1409C4.22943 29.1871 4.22943 29.2428 4.20276 29.289L3.64032 30.2638L3.415 30.0666L4.33386 29.4366C4.37983 29.4052 4.43942 29.3997 4.48993 29.4229C4.54045 29.446 4.5745 29.4939 4.57904 29.5484L4.8736 33.252L4.56315 33.2548L4.77882 29.5473C4.78166 29.4928 4.81514 29.4443 4.86565 29.4201C4.91616 29.3964 4.97632 29.4008 5.02286 29.4317L6.08191 30.1432L5.86567 30.3536L5.09494 29.2786C5.06316 29.234 5.05805 29.1761 5.08189 29.1271C5.10629 29.0781 5.1551 29.0456 5.21072 29.0412L6.06148 28.9773L6.07339 28.9762L6.08531 29.1271L6.0978 29.278L6.08134 29.2791L6.07112 29.2797L6.05864 29.1288L6.04672 28.9784L6.30666 28.9586L7.60748 28.8606L8.98605 28.7565L8.99059 29.0583L5.26918 28.8749C5.21469 28.8721 5.16532 28.8418 5.13978 28.7956C5.11367 28.7488 5.11481 28.6926 5.14262 28.6469L5.72662 27.6875L5.95251 27.8863L4.99108 28.5687C4.94568 28.6006 4.88608 28.6067 4.83444 28.5841C4.78336 28.5615 4.74874 28.5136 4.7442 28.4591L4.41218 24.6729L4.7232 24.6663L4.57507 28.4459C4.57336 28.4993 4.54215 28.5478 4.49334 28.5731C4.4451 28.5984 4.38607 28.5968 4.33897 28.5692L3.29127 27.9535L3.49843 27.7354ZM3.2453 27.9122C3.20217 27.8539 3.20728 27.774 3.25722 27.7211C3.30773 27.6688 3.38946 27.6572 3.45246 27.6947L4.50015 28.3104L4.26405 28.4343L4.41161 24.6547C4.41502 24.5749 4.48142 24.511 4.56372 24.5093C4.64601 24.5071 4.71582 24.5677 4.72263 24.6476L5.05465 28.4338L4.80719 28.3242L5.76862 27.6424C5.82821 27.6 5.91051 27.6044 5.96499 27.6523C6.02005 27.7008 6.03253 27.7795 5.99451 27.8412L5.41107 28.8005L5.2845 28.5725L9.00592 28.7565C9.08821 28.7603 9.15291 28.8259 9.15405 28.9052C9.15518 28.985 9.09218 29.0522 9.01046 29.0583L7.63132 29.1624L6.33106 29.2604L6.07112 29.2797L6.05864 29.1288L6.04672 28.9784L6.0575 28.9773L6.07339 28.9762L6.08531 29.1271C6.08134 29.278 6.10177 29.2775 6.0978 29.278L6.08531 29.2786L5.23513 29.343L5.35091 29.1056L6.12107 30.1812C6.1642 30.2412 6.15682 30.3222 6.10348 30.3739C6.05069 30.4257 5.9667 30.4334 5.90483 30.3916L4.84579 29.6806L5.08983 29.5644L4.87417 33.2718C4.86906 33.3517 4.80209 33.4139 4.71979 33.4145C4.63807 33.4156 4.56939 33.3544 4.56315 33.2751L4.26859 29.5715L4.51377 29.6833L3.59434 30.3139C3.53532 30.3547 3.45473 30.3497 3.40024 30.3024C3.34633 30.255 3.33327 30.1779 3.36903 30.1162L3.93147 29.1409L4.06087 29.3661L0.149325 29.2147C0.0670306 29.2114 0.00176253 29.1469 5.9997e-05 29.0671C-0.00221034 28.9878 0.06022 28.92 0.141947 28.9129L4.03192 28.5825L3.91898 28.8209L3.2453 27.9122Z" fill="#E30048"/>
</svg>
