<svg width="34" height="34" viewBox="0 0 34 34" fill="none" xmlns="http://www.w3.org/2000/svg">
<path fill-rule="evenodd" clip-rule="evenodd" d="M17 34C26.3888 34 34 26.3888 34 17C34 7.61116 26.3888 0 17 0C7.61116 0 0 7.61116 0 17C0 26.3888 7.61116 34 17 34ZM17.9198 24.9504C17.9198 25.6741 18.5767 25.9329 18.9051 25.9718H19.5137C19.7456 25.9718 20.7309 25.7383 21.1946 24.9504C21.5656 24.3201 21.6969 23.0147 21.7163 22.4408V19.9019C21.5772 18.0343 19.3399 17.8787 18.2386 18.0343C17.089 18.1899 14.5117 18.4954 13.3988 18.472C12.0077 18.4428 11.5887 18.3553 10.4874 18.0343C9.38613 17.7133 8.082 16.6321 8.02404 14.8812C8.02262 14.8383 8.02115 14.7951 8.01966 14.7515C7.96055 13.0132 7.88147 10.6883 10.2845 8.92807C12.5952 7.23551 14.2682 6.97288 17.9198 7.00206C21.5714 7.03125 23.5917 8.48544 24.9248 10.5574C25.9913 12.2149 25.997 13.9453 25.997 15.492C26.0202 16.239 25.91 18.1253 25.6492 19.9019C25.3884 21.6786 24.7646 23.1638 24.4031 23.929C23.012 26.873 20.5518 27.6609 19.5137 27.6609C17.0999 27.6609 15.931 26.299 15.8827 25.0929C15.9291 22.7816 17.8715 21.9739 18.9051 21.9447C19.2239 21.9447 19.9253 22.0614 19.9484 22.9952C19.9745 24.0431 19.1996 23.9593 18.963 23.9338C18.9361 23.9308 18.9161 23.9287 18.9051 23.929C18.7893 23.9328 17.9198 24.0458 17.9198 24.9504ZM24.519 13.9161C24.519 14.4802 24.0648 14.9375 23.5047 14.9375C22.9445 14.9375 22.4903 14.4802 22.4903 13.9161C22.4903 13.3521 22.9445 12.8948 23.5047 12.8948C24.0648 12.8948 24.519 13.3521 24.519 13.9161Z" fill="#7C7C7C"/>
<path fill-rule="evenodd" clip-rule="evenodd" d="M18.9051 25.9718C18.5767 25.9329 17.9198 25.6741 17.9198 24.9504C17.9198 24.0458 18.7893 23.9328 18.9051 23.929C18.9161 23.9287 18.9361 23.9308 18.963 23.9338C19.1996 23.9593 19.9745 24.0431 19.9484 22.9952C19.9253 22.0614 19.2239 21.9447 18.9051 21.9447C17.8715 21.9739 15.9291 22.7816 15.8827 25.0929C15.931 26.299 17.0999 27.6609 19.5137 27.6609C20.5518 27.6609 23.012 26.873 24.4031 23.929C24.7646 23.1638 25.3884 21.6786 25.6492 19.9019C25.91 18.1253 26.0202 16.239 25.997 15.492C25.997 13.9453 25.9913 12.2149 24.9248 10.5574C23.5917 8.48544 21.5714 7.03125 17.9198 7.00206C14.2682 6.97288 12.5952 7.23551 10.2845 8.92807C7.88147 10.6883 7.96055 13.0132 8.01966 14.7515L8.02404 14.8812C8.082 16.6321 9.38613 17.7133 10.4874 18.0343C11.5887 18.3553 12.0077 18.4428 13.3988 18.472C14.5117 18.4954 17.089 18.1899 18.2386 18.0343C19.3399 17.8787 21.5772 18.0343 21.7163 19.9019V22.4408C21.6969 23.0147 21.5656 24.3201 21.1946 24.9504C20.7309 25.7383 19.7456 25.9718 19.5137 25.9718H18.9051ZM23.5047 14.9375C24.0648 14.9375 24.519 14.4802 24.519 13.9161C24.519 13.3521 24.0648 12.8948 23.5047 12.8948C22.9445 12.8948 22.4903 13.3521 22.4903 13.9161C22.4903 14.4802 22.9445 14.9375 23.5047 14.9375Z" fill="#D9D9D9"/>
</svg>
