<svg width="16" height="16" viewBox="0 0 16 16" fill="none" xmlns="http://www.w3.org/2000/svg">
<path d="M10.4097 5.981L9.75408 5.87203C9.73825 5.96721 9.74335 6.0647 9.76901 6.15771C9.79467 6.25072 9.84028 6.33703 9.90267 6.41063C9.96506 6.48424 10.0427 6.54337 10.1303 6.58392C10.2178 6.62447 10.3132 6.64546 10.4097 6.64544V5.981ZM0.664447 5.981V5.31655C0.488224 5.31655 0.31922 5.38655 0.194612 5.51116C0.0700039 5.63577 0 5.80477 0 5.981H0.664447ZM2.4363 15.5047H12.5005V14.1758H4.95578H3.5H2.4363V15.5047ZM13.5636 5.31655H10.4097V6.64544H13.5636V5.31655ZM11.0653 6.08997L11.7793 1.8065L10.4681 1.58768L9.75408 5.87203L11.0653 6.08997ZM10.2502 0.000976562H10.0606V1.32987H10.2493L10.2502 0.000976562ZM7.29562 1.48048L5.06751 4.82309L6.17315 5.56018L8.40126 2.21757L7.29562 1.48048ZM4.14615 5.31655H0.664447V6.64544H3.5H4.14615V5.31655ZM0 5.981V13.0684H1.32889V5.981H0ZM14.8898 13.5468L15.9529 8.23037L14.6506 7.96991L13.5875 13.2855L14.8898 13.5468ZM5.06751 4.82309C4.96643 4.97483 4.82944 5.09839 4.66871 5.18447C4.50798 5.27055 4.32848 5.3165 4.14615 5.31655V6.64544C4.42591 6.64544 4.6992 6.59743 4.95578 6.50696C5.4467 6.33384 5.87642 6.00529 6.17315 5.56018L5.06751 4.82309ZM11.7793 1.8065C11.8162 1.58446 11.8043 1.35616 11.7445 1.13917C11.6847 0.922179 11.5783 0.720823 11.4328 0.549092C11.2873 0.377362 11.1061 0.239375 10.9019 0.144721C10.6977 0.0500669 10.4753 0.00101587 10.2502 0.000976562L10.2493 1.32987C10.2814 1.32995 10.314 1.33701 10.3431 1.35056C10.3722 1.36412 10.3981 1.38384 10.4188 1.40837C10.4395 1.43289 10.4547 1.46163 10.4632 1.49259C10.4717 1.52355 10.4734 1.556 10.4681 1.58768L11.7793 1.8065ZM13.5636 6.64544C14.2635 6.64544 14.7862 7.2842 14.6497 7.96902L15.9529 8.23037C16.0234 7.87697 16.0146 7.51144 15.9272 7.16184C15.8398 6.81224 15.6759 6.48638 15.4474 6.20776C15.2188 5.92913 14.9313 5.70468 14.6056 5.55057C14.2798 5.39646 13.9239 5.31653 13.5636 5.31655V6.64544ZM12.5005 15.5047C13.0636 15.5048 13.6095 15.3089 14.0451 14.952C14.4807 14.595 14.7792 14.0991 14.8898 13.5468L13.5875 13.2855C13.5373 13.5367 13.4015 13.7619 13.2033 13.9243C13.0051 14.0866 12.7567 14.1761 12.5005 14.1758V15.5047ZM10.0606 0.000976562C9.51369 0.00101629 8.97525 0.135191 8.49306 0.393284C8.01088 0.651377 7.59987 1.02452 7.29651 1.47959L8.40126 2.21757C8.58336 1.9444 8.83011 1.71955 9.11959 1.56469C9.40906 1.40983 9.73231 1.32975 10.0606 1.32987V0.000976562ZM2.4363 14.1758C1.82501 14.1758 1.32889 13.6797 1.32889 13.0684H0C0 13.7146 0.256681 14.3343 0.713577 14.7912C1.17047 15.2481 1.79016 15.5047 2.4363 15.5047V14.1758Z" fill="#E30048"/>
<path d="M4.14615 6.64544H3.5V14.1758H4.95578V6.50696C4.6992 6.59743 4.42591 6.64544 4.14615 6.64544Z" fill="#E30048"/>
</svg>
