<svg width="65" height="63" viewBox="0 0 65 63" fill="none" xmlns="http://www.w3.org/2000/svg">
<path d="M0.140132 31.4099C0.137838 31.9241 0.147884 32.4377 0.17181 32.9513C0.194964 33.4649 0.231231 33.9779 0.279841 34.4893C0.329223 35.0008 0.390945 35.5116 0.465785 36.0201C0.539852 36.5294 0.627039 37.0358 0.727343 37.5407C0.826878 38.0448 0.939532 38.5467 1.06453 39.0464C1.18877 39.5453 1.32612 40.0413 1.47583 40.5343C1.62554 41.0265 1.7876 41.5151 1.96202 41.9998C2.13643 42.4854 2.32244 42.9657 2.5208 43.4415C2.71839 43.9173 2.92834 44.3878 3.14988 44.8539C3.37219 45.3192 3.60532 45.7792 3.85004 46.234C4.09477 46.6881 4.35031 47.1369 4.61745 47.5789C4.88459 48.021 5.16256 48.4562 5.45134 48.8855C5.74014 49.314 6.03975 49.7357 6.34943 50.1499C6.6591 50.5642 6.9796 50.9708 7.30939 51.37C7.63996 51.7684 7.97981 52.1593 8.32972 52.5418C8.67963 52.9244 9.03884 53.298 9.40733 53.6632C9.77506 54.0285 10.1528 54.3847 10.5392 54.7318C10.9255 55.079 11.3195 55.4163 11.7229 55.7439C12.1263 56.0722 12.5374 56.3899 12.9562 56.6986C13.3751 57.0065 13.8017 57.3046 14.2354 57.5921C14.669 57.8797 15.1104 58.1567 15.5579 58.4231C16.0055 58.6895 16.4593 58.9445 16.9201 59.189C17.3802 59.4335 17.8472 59.6667 18.3189 59.8885C18.7913 60.1103 19.2685 60.3208 19.751 60.52C20.2336 60.7191 20.7209 60.9062 21.2128 61.0819C21.7048 61.2568 22.2014 61.4204 22.7012 61.572C23.201 61.7235 23.7046 61.8629 24.2122 61.9902C24.719 62.1175 25.229 62.2327 25.7421 62.3351C26.2552 62.4382 26.7698 62.5284 27.2869 62.6058C27.8047 62.6839 28.3234 62.7492 28.8444 62.8016C29.3647 62.8547 29.8865 62.895 30.4092 62.9224C30.9319 62.9498 31.4546 62.9651 31.9782 62.9675C32.501 62.9699 33.0246 62.9595 33.5475 62.9369C34.0704 62.9143 34.5918 62.8788 35.1133 62.8305C35.634 62.7829 36.154 62.7225 36.6717 62.6491C37.1894 62.5765 37.7057 62.491 38.2189 62.3927C38.7329 62.2951 39.2438 62.1846 39.7525 62.062C40.2605 61.9393 40.7653 61.8046 41.2664 61.6577C41.7683 61.5108 42.2656 61.3518 42.7591 61.1814C43.2526 61.0102 43.7415 60.8277 44.2259 60.633C44.7102 60.4383 45.19 60.2322 45.6636 60.0148C46.138 59.7973 46.6063 59.5685 47.0685 59.3282C47.5315 59.088 47.9876 58.8372 48.4383 58.5749C48.8882 58.3127 49.3313 58.0398 49.7674 57.7562C50.2044 57.4727 50.6329 57.1786 51.0552 56.8745C51.4768 56.5697 51.8908 56.2558 52.2963 55.9312C52.7026 55.6074 53.1004 55.2738 53.4898 54.9302C53.8784 54.5866 54.2593 54.2339 54.6311 53.8721C55.0028 53.5102 55.3654 53.14 55.7179 52.7607C56.0712 52.3814 56.4145 51.9936 56.7486 51.5983C57.0827 51.2022 57.4061 50.7985 57.7194 50.3872C58.0336 49.9759 58.3362 49.5569 58.6288 49.1311C58.9214 48.7045 59.2032 48.2718 59.4743 47.8323C59.7454 47.3927 60.0057 46.9463 60.2544 46.4945C60.5032 46.042 60.7404 45.5841 60.9661 45.1209C61.1918 44.6569 61.4059 44.1883 61.6085 43.7143C61.8111 43.2404 62.0014 42.7618 62.1794 42.2779C62.3581 41.7948 62.5245 41.3078 62.6786 40.8169C62.8327 40.3254 62.9745 39.8307 63.104 39.3329C63.2334 38.8344 63.3498 38.3335 63.4546 37.8303C63.5586 37.3264 63.6503 36.8209 63.7297 36.3123C63.8083 35.8044 63.8746 35.2943 63.9285 34.7833C63.9825 34.2723 64.0225 33.7597 64.051 33.2463C64.0788 32.7329 64.0942 32.2195 64.0965 31.7052C64.0988 31.191 64.0879 30.6774 64.0648 30.1638C64.0409 29.6502 64.0054 29.1373 63.956 28.6258C63.9066 28.1143 63.8449 27.6036 63.7708 27.095C63.696 26.5857 63.6088 26.0794 63.5093 25.5745C63.4089 25.0703 63.2971 24.5684 63.1721 24.0687C63.0471 23.5698 62.9097 23.0738 62.76 22.5808C62.6103 22.0886 62.4482 21.6001 62.2738 21.1145C62.1002 20.6298 61.9142 20.1495 61.7158 19.6737C61.5174 19.1979 61.3075 18.7273 61.0859 18.2613C60.8644 17.796 60.6313 17.3359 60.3866 16.8811C60.1418 16.427 59.8855 15.9782 59.6184 15.5362C59.3512 15.0942 59.0733 14.6589 58.7845 14.2296C58.4957 13.8011 58.1968 13.3794 57.8864 12.9652C57.5767 12.551 57.257 12.1443 56.9264 11.7451C56.5959 11.3467 56.256 10.9559 55.9061 10.5733C55.557 10.1907 55.1978 9.81716 54.8293 9.45191C54.4608 9.08666 54.083 8.73045 53.6974 8.3833C53.3111 8.03615 52.9163 7.6988 52.5129 7.37126C52.1103 7.04296 51.6992 6.72523 51.2803 6.41655C50.8607 6.10863 50.4349 5.81052 50.0005 5.52298C49.5669 5.23544 49.1262 4.95847 48.6787 4.69207C48.2303 4.42567 47.7765 4.17061 47.3157 3.92611C46.8557 3.68162 46.3894 3.44846 45.917 3.22664C45.4453 3.00482 44.9674 2.79433 44.4848 2.59518C44.0022 2.39603 43.5149 2.20897 43.023 2.03326C42.531 1.8583 42.0352 1.69468 41.5346 1.54317C41.0349 1.39165 40.5312 1.25224 40.0244 1.12493C39.5168 0.997614 39.0069 0.882406 38.4938 0.78006C37.9814 0.676961 37.466 0.586724 36.9489 0.509354C36.4319 0.431227 35.9124 0.365966 35.3922 0.313576C34.8712 0.260424 34.3501 0.220147 33.8274 0.192739C33.3047 0.165331 32.7812 0.150038 32.2584 0.147624C31.7349 0.145964 31.212 0.156424 30.6891 0.17976C30.167 0.2031 29.6448 0.238558 29.1241 0.286898C28.6034 0.335239 28.0842 0.396464 27.5657 0.469809C27.0479 0.543157 26.5324 0.629392 26.0192 0.726998C25.5052 0.825357 24.9943 0.935847 24.4864 1.05923C23.9784 1.18185 23.4743 1.31661 22.9724 1.46426C22.4713 1.61115 21.974 1.77018 21.4806 1.94134C20.9878 2.11251 20.4989 2.29506 20.0146 2.48974C19.5302 2.68443 19.0512 2.89125 18.5776 3.10871C18.1039 3.32617 17.6356 3.55577 17.1734 3.796C16.7105 4.03623 16.2544 4.28709 15.8045 4.54934C15.3553 4.8116 14.9122 5.08448 14.4753 5.368C14.0391 5.65228 13.6106 5.94569 13.189 6.25048C12.7674 6.55452 12.3535 6.86845 11.948 7.19301C11.5417 7.51681 11.1447 7.8505 10.7553 8.19408C10.3659 8.53765 9.98569 8.89035 9.61395 9.25143C9.24222 9.61326 8.88046 9.98347 8.52715 10.3628C8.17384 10.7421 7.83052 11.1299 7.49641 11.5252C7.16308 11.9205 6.83973 12.3242 6.5256 12.7356C6.21224 13.1469 5.90888 13.5658 5.61627 13.9917C5.32367 14.4175 5.04183 14.8502 4.77076 15.2897C4.49969 15.7293 4.23938 16.1749 3.99062 16.6267C3.74185 17.0785 3.50462 17.5364 3.27894 17.9996C3.05248 18.4636 2.83834 18.9322 2.63574 19.4054C2.43315 19.8793 2.24286 20.3579 2.06413 20.841C1.88539 21.3242 1.71898 21.8104 1.56411 22.302C1.41001 22.7928 1.26824 23.2875 1.13802 23.7853C1.00857 24.283 0.891438 24.7839 0.786637 25.2871C0.681837 25.7903 0.590131 26.2965 0.510756 26.8044C0.431381 27.3122 0.364336 27.8216 0.310393 28.3326C0.25645 28.8436 0.214837 29.3562 0.187101 29.8696C0.158597 30.3822 0.142426 30.8956 0.140132 31.4099ZM33.3006 12.3275L45.853 24.8302C45.9857 24.9747 46.0876 25.1373 46.16 25.3179C46.2332 25.4977 46.2709 25.685 46.2747 25.8796C46.2756 26.0288 46.2533 26.1749 46.2088 26.3179C46.1642 26.4608 46.0996 26.5946 46.0142 26.7184C45.9296 26.8422 45.8281 26.9508 45.7097 27.0449C45.5913 27.1391 45.4614 27.2134 45.3201 27.2696C45.1787 27.325 45.032 27.3591 44.8809 27.3721C44.7289 27.3842 44.5793 27.3745 44.4299 27.3427C44.2812 27.3117 44.1411 27.2588 44.008 27.1863C43.875 27.1129 43.7566 27.0223 43.6515 26.9142L33.706 17.026L33.5616 49.3933C33.5612 49.4917 33.5507 49.5886 33.531 49.6855C33.5106 49.7816 33.4816 49.8746 33.4427 49.9653C33.4045 50.056 33.357 50.1421 33.3012 50.2229C33.2453 50.3045 33.1817 50.3799 33.1105 50.4492C33.0392 50.5178 32.9626 50.5796 32.8791 50.6337C32.7956 50.6879 32.7075 50.7337 32.6148 50.7711C32.5228 50.8078 32.4271 50.8361 32.3291 50.8546C32.2311 50.8731 32.1316 50.8825 32.0321 50.882C31.9318 50.8816 31.8332 50.8713 31.7346 50.8519C31.6367 50.8325 31.542 50.8033 31.4497 50.7657C31.3573 50.7274 31.2696 50.6808 31.1873 50.6259C31.1043 50.571 31.0275 50.5086 30.9568 50.4393C30.887 50.3693 30.8241 50.2933 30.7689 50.2112C30.7138 50.1299 30.6671 50.0434 30.629 49.9523C30.5916 49.8612 30.5627 49.7679 30.5439 49.6717C30.5243 49.5746 30.5154 49.4776 30.5159 49.3792L30.6603 17.0119L20.779 26.8086C20.7092 26.8787 20.6326 26.942 20.5491 26.9976C20.4663 27.0533 20.379 27.1006 20.2863 27.1388C20.1936 27.1778 20.0986 27.2069 19.9998 27.2276C19.9018 27.2476 19.8023 27.2585 19.702 27.2588C19.6018 27.2599 19.5024 27.2511 19.403 27.2332C19.3044 27.2146 19.2089 27.1869 19.1157 27.1501C19.0226 27.1133 18.9333 27.0682 18.8495 27.014C18.7657 26.9599 18.6873 26.8982 18.6159 26.8289C18.5445 26.7604 18.4801 26.6851 18.4234 26.6031C18.3667 26.5218 18.3185 26.4352 18.2796 26.3449C18.2399 26.2538 18.2102 26.1605 18.1899 26.0635C18.1695 25.9672 18.1583 25.8695 18.1572 25.771C18.1569 25.6725 18.1658 25.5741 18.184 25.4772C18.2029 25.3804 18.2311 25.2866 18.2685 25.1951C18.3059 25.1037 18.3526 25.016 18.4077 24.9337C18.4628 24.8514 18.5256 24.7744 18.5953 24.7043L31.1076 12.3174C31.1797 12.2473 31.2586 12.1848 31.3437 12.1299C31.4287 12.075 31.5176 12.0284 31.6119 11.9903C31.7061 11.9528 31.8034 11.9245 31.9037 11.9053C32.0033 11.8868 32.1043 11.8774 32.2061 11.8779C32.3079 11.8784 32.4081 11.8887 32.5082 11.9081C32.6076 11.9282 32.7046 11.9574 32.7985 11.9957C32.8924 12.0348 32.9817 12.0822 33.0663 12.1379C33.1501 12.1935 33.2284 12.2568 33.3006 12.3275Z" fill="#E30048"/>
<path d="M33.3006 12.3275L45.853 24.8302C45.9857 24.9747 46.0876 25.1373 46.16 25.3179C46.2332 25.4977 46.2709 25.685 46.2747 25.8796C46.2756 26.0288 46.2533 26.1749 46.2088 26.3179C46.1642 26.4608 46.0996 26.5946 46.0142 26.7184C45.9296 26.8422 45.8281 26.9508 45.7097 27.0449C45.5913 27.1391 45.4614 27.2134 45.3201 27.2696C45.1787 27.325 45.032 27.3591 44.8809 27.3721C44.7289 27.3842 44.5793 27.3745 44.4299 27.3427C44.2812 27.3117 44.1411 27.2588 44.008 27.1863C43.875 27.1129 43.7566 27.0223 43.6515 26.9142L33.706 17.026L33.5616 49.3933C33.5612 49.4917 33.5507 49.5886 33.531 49.6855C33.5106 49.7816 33.4816 49.8746 33.4427 49.9653C33.4045 50.056 33.357 50.1421 33.3012 50.2229C33.2453 50.3045 33.1817 50.3799 33.1105 50.4492C33.0392 50.5178 32.9626 50.5796 32.8791 50.6337C32.7956 50.6879 32.7075 50.7337 32.6148 50.7711C32.5228 50.8078 32.4271 50.8361 32.3291 50.8546C32.2311 50.8731 32.1316 50.8825 32.0321 50.882C31.9318 50.8816 31.8332 50.8713 31.7346 50.8519C31.6367 50.8325 31.542 50.8033 31.4497 50.7657C31.3573 50.7274 31.2696 50.6808 31.1873 50.6259C31.1043 50.571 31.0275 50.5086 30.9568 50.4393C30.887 50.3693 30.8241 50.2933 30.7689 50.2112C30.7138 50.1299 30.6671 50.0434 30.629 49.9523C30.5916 49.8612 30.5627 49.7679 30.5439 49.6717C30.5243 49.5746 30.5154 49.4776 30.5159 49.3792L30.6603 17.0119L20.779 26.8086C20.7092 26.8787 20.6326 26.942 20.5491 26.9976C20.4663 27.0533 20.379 27.1006 20.2863 27.1388C20.1936 27.1778 20.0986 27.2069 19.9998 27.2276C19.9018 27.2476 19.8023 27.2585 19.702 27.2588C19.6018 27.2599 19.5024 27.2511 19.403 27.2332C19.3044 27.2146 19.2089 27.1869 19.1157 27.1501C19.0226 27.1133 18.9333 27.0682 18.8495 27.014C18.7657 26.9599 18.6873 26.8982 18.6159 26.8289C18.5445 26.7604 18.4801 26.6851 18.4234 26.6031C18.3667 26.5218 18.3185 26.4352 18.2796 26.3449C18.2399 26.2538 18.2102 26.1605 18.1899 26.0635C18.1695 25.9672 18.1583 25.8695 18.1572 25.771C18.1569 25.6725 18.1658 25.5741 18.184 25.4772C18.2029 25.3804 18.2311 25.2866 18.2685 25.1951C18.3059 25.1037 18.3526 25.016 18.4077 24.9337C18.4628 24.8514 18.5256 24.7744 18.5953 24.7043L31.1076 12.3174C31.1797 12.2473 31.2586 12.1848 31.3437 12.1299C31.4287 12.075 31.5176 12.0284 31.6119 11.9903C31.7061 11.9528 31.8034 11.9245 31.9037 11.9053C32.0033 11.8868 32.1043 11.8774 32.2061 11.8779C32.3079 11.8784 32.4081 11.8887 32.5082 11.9081C32.6076 11.9282 32.7046 11.9574 32.7985 11.9957C32.8924 12.0348 32.9817 12.0822 33.0663 12.1379C33.1501 12.1935 33.2284 12.2568 33.3006 12.3275Z" fill="white"/>
</svg>
