<svg width="29" height="29" viewBox="0 0 29 29" fill="none" xmlns="http://www.w3.org/2000/svg">
<path fill-rule="evenodd" clip-rule="evenodd" d="M4 15.794C3.65467 15.648 3.32133 15.482 3 15.296V24.5C3 25.6935 3.47411 26.8381 4.31802 27.682C5.16193 28.5259 6.30653 29 7.5 29H24.5C25.6935 29 26.8381 28.5259 27.682 27.682C28.5259 26.8381 29 25.6935 29 24.5V7.5C29 6.30653 28.5259 5.16193 27.682 4.31802C26.8381 3.47411 25.6935 3 24.5 3H15.296C15.4825 3.3227 15.6489 3.65668 15.794 4H24.5C25.4283 4 26.3185 4.36875 26.9749 5.02513C27.6313 5.6815 28 6.57174 28 7.5V24.5C28.0003 25.0702 27.8612 25.6318 27.595 26.136L17.775 16.231C17.5426 15.9967 17.2661 15.8107 16.9614 15.6838C16.6568 15.5568 16.33 15.4915 16 15.4915C15.67 15.4915 15.3432 15.5568 15.0386 15.6838C14.7339 15.8107 14.4574 15.9967 14.225 16.231L4.405 26.136C4.146 25.648 4 25.09 4 24.5V15.794ZM26.997 26.953C26.362 27.6 25.478 28 24.5 28H7.5C7.03512 28.0001 6.57488 27.9075 6.14615 27.7277C5.71743 27.548 5.32882 27.2846 5.003 26.953L14.935 16.935C15.0744 16.7944 15.2403 16.6828 15.4231 16.6067C15.6059 16.5305 15.802 16.4913 16 16.4913C16.198 16.4913 16.3941 16.5305 16.5769 16.6067C16.7597 16.6828 16.9256 16.7944 17.065 16.935L26.997 26.953ZM23.9749 13.4749C24.6313 12.8185 25 11.9283 25 11C25 10.0717 24.6313 9.1815 23.9749 8.52513C23.3185 7.86875 22.4283 7.5 21.5 7.5C20.5717 7.5 19.6815 7.86875 19.0251 8.52513C18.3687 9.1815 18 10.0717 18 11C18 11.9283 18.3687 12.8185 19.0251 13.4749C19.6815 14.1313 20.5717 14.5 21.5 14.5C22.4283 14.5 23.3185 14.1313 23.9749 13.4749ZM23.2678 9.23223C23.7366 9.70107 24 10.337 24 11C24 11.663 23.7366 12.2989 23.2678 12.7678C22.7989 13.2366 22.163 13.5 21.5 13.5C20.837 13.5 20.2011 13.2366 19.7322 12.7678C19.2634 12.2989 19 11.663 19 11C19 10.337 19.2634 9.70107 19.7322 9.23223C20.2011 8.76339 20.837 8.5 21.5 8.5C22.163 8.5 22.7989 8.76339 23.2678 9.23223Z" fill="#E30048"/>
<path d="M11.996 2.50423C11.8363 2.34438 11.6467 2.21757 11.438 2.13105C11.2293 2.04453 11.0055 2 10.7796 2C10.5537 2 10.3299 2.04453 10.1212 2.13105C9.9125 2.21757 9.72289 2.34438 9.56321 2.50423L3.09481 8.97294C2.90232 9.16542 2.76233 9.40428 2.68884 9.66675L2.01208 12.0837C1.99644 12.1397 1.99598 12.1989 2.01074 12.2552C2.02551 12.3114 2.05497 12.3628 2.0961 12.4039C2.13723 12.445 2.18856 12.4745 2.24482 12.4893C2.30109 12.504 2.36027 12.5036 2.4163 12.4879L4.83287 11.8112C5.09553 11.7382 5.33475 11.5983 5.52713 11.4052L11.996 4.93651C12.1558 4.77685 12.2825 4.58726 12.369 4.37859C12.4555 4.16992 12.5 3.94625 12.5 3.72037C12.5 3.49449 12.4555 3.27082 12.369 3.06215C12.2825 2.85348 12.1558 2.66389 11.996 2.50423ZM10.0274 2.96794C10.2269 2.76844 10.4976 2.65639 10.7797 2.65643C11.0619 2.65647 11.3325 2.7686 11.532 2.96816C11.7315 3.16772 11.8436 3.43835 11.8436 3.72052C11.8435 4.0027 11.7314 4.2733 11.5318 4.4728L10.8581 5.14605L9.35367 3.64119L10.0274 2.96794ZM8.88995 4.10533L10.3948 5.61019L5.06298 10.9415C4.95037 11.0549 4.81014 11.1369 4.65613 11.1795L2.80083 11.6987L3.32011 9.84392C3.36326 9.69016 3.44521 9.55006 3.55809 9.43708L8.88995 4.10533Z" fill="#E30048"/>
<path fill-rule="evenodd" clip-rule="evenodd" d="M7.5 15C5.51088 15 3.60322 14.2098 2.1967 12.8033C0.790176 11.3968 0 9.48912 0 7.5C0 5.51088 0.790176 3.60322 2.1967 2.1967C3.60322 0.790176 5.51088 0 7.5 0C9.48912 0 11.3968 0.790176 12.8033 2.1967C14.2098 3.60322 15 5.51088 15 7.5C15 9.48912 14.2098 11.3968 12.8033 12.8033C11.3968 14.2098 9.48912 15 7.5 15ZM8.88995 4.10533L10.3948 5.61019L5.06298 10.9415C4.95037 11.0549 4.81014 11.1369 4.65613 11.1795L2.80083 11.6987L3.32011 9.84392C3.36326 9.69016 3.44521 9.55006 3.55809 9.43708L8.88995 4.10533ZM10.7797 2.65643C10.4976 2.65639 10.2269 2.76844 10.0274 2.96794L9.35367 3.64119L10.8581 5.14605L11.5318 4.4728C11.7314 4.2733 11.8435 4.0027 11.8436 3.72052C11.8436 3.43835 11.7315 3.16772 11.532 2.96816C11.3325 2.7686 11.0619 2.65647 10.7797 2.65643Z" fill="#E30048"/>
</svg>
