<svg width="17" height="5" viewBox="0 0 17 5" fill="none" xmlns="http://www.w3.org/2000/svg">
<path d="M8.07059 4.04027C8.6057 4.04027 9.1189 3.82743 9.49728 3.44858C9.87566 3.06974 10.0882 2.55591 10.0882 2.02013C10.0882 1.48436 9.87566 0.970533 9.49728 0.591684C9.1189 0.212835 8.6057 0 8.07059 0C7.53547 0 7.02228 0.212835 6.6439 0.591684C6.26551 0.970533 6.05294 1.48436 6.05294 2.02013C6.05294 2.55591 6.26551 3.06974 6.6439 3.44858C7.02228 3.82743 7.53547 4.04027 8.07059 4.04027ZM2.01765 4.04027C2.55276 4.04027 3.06596 3.82743 3.44434 3.44858C3.82272 3.06974 4.03529 2.55591 4.03529 2.02013C4.03529 1.48436 3.82272 0.970533 3.44434 0.591684C3.06596 0.212835 2.55276 0 2.01765 0C1.48253 0 0.969337 0.212835 0.590955 0.591684C0.212573 0.970533 0 1.48436 0 2.02013C0 2.55591 0.212573 3.06974 0.590955 3.44858C0.969337 3.82743 1.48253 4.04027 2.01765 4.04027ZM14.1235 4.04027C14.6586 4.04027 15.1718 3.82743 15.5502 3.44858C15.9286 3.06974 16.1412 2.55591 16.1412 2.02013C16.1412 1.48436 15.9286 0.970533 15.5502 0.591684C15.1718 0.212835 14.6586 0 14.1235 0C13.5884 0 13.0752 0.212835 12.6968 0.591684C12.3185 0.970533 12.1059 1.48436 12.1059 2.02013C12.1059 2.55591 12.3185 3.06974 12.6968 3.44858C13.0752 3.82743 13.5884 4.04027 14.1235 4.04027Z" fill="white"/>
</svg>
