<svg width="63" height="46" viewBox="0 0 63 46" fill="none" xmlns="http://www.w3.org/2000/svg">
<path fill-rule="evenodd" clip-rule="evenodd" d="M50.6005 36.5702L58.4898 43.7806L56.0585 46L8.16136 2.22462L10.5869 0L18.7625 7.47212C22.7144 6.02742 27.0098 5.23441 31.5 5.23441C45.2684 5.23441 57.1925 12.6882 63 23.5548C60.1984 28.8188 55.9199 33.3099 50.6005 36.5702ZM21.4372 9.91921L26.2023 14.2742C28.3641 13.2413 30.8304 12.8661 33.2417 13.2034C35.6531 13.5406 37.8838 14.5726 39.6087 16.1492C41.3337 17.7257 42.4629 19.7643 42.8319 21.9682C43.2009 24.1721 42.7904 26.4261 41.6602 28.4019L48.1177 34.3037C52.625 31.6865 56.4337 28.0146 59.1284 23.5575C53.5099 14.2638 43.0519 8.37506 31.5 8.37506C28.0753 8.37702 24.6748 8.89884 21.4372 9.91921ZM39.0543 26.0203C39.5653 24.7135 39.6598 23.301 39.3269 21.9471C38.9939 20.5931 38.2472 19.3534 37.1735 18.3722C36.0999 17.3909 34.7435 16.7084 33.262 16.4041C31.7806 16.0999 30.2351 16.1862 28.8053 16.6533L39.0543 26.0203ZM44.2375 39.6402C40.2856 41.0849 35.9902 41.8779 31.5 41.8779C17.7316 41.8779 5.80745 34.4241 0 23.5575C2.80155 18.2935 7.08009 13.8024 12.3995 10.5421L14.8823 12.8112C10.2847 15.4923 6.49847 19.1867 3.87164 23.5548C9.49009 32.8459 19.9481 38.7346 31.5 38.7346C34.9247 38.7327 38.3252 38.2108 41.5628 37.1905L44.2375 39.6402ZM21.3427 18.713L23.9457 21.0947C23.4347 22.4014 23.3402 23.8139 23.6731 25.1679C24.0061 26.5218 24.7528 27.7615 25.8265 28.7428C26.9001 29.724 28.2565 30.4065 29.738 30.7108C31.2194 31.0151 32.7649 30.9287 34.1947 30.4617L36.8006 32.8381C34.6387 33.871 32.1725 34.2462 29.7611 33.9089C27.3497 33.5717 25.1191 32.5397 23.3941 30.9631C21.6692 29.3866 20.54 27.348 20.171 25.1441C19.802 22.9402 20.2125 20.6888 21.3427 18.713Z" fill="#E30048"/>
</svg>
