<svg width="23" height="16" viewBox="0 0 23 16" fill="none" xmlns="http://www.w3.org/2000/svg">
<path d="M22.9495 7.75077C22.9163 7.67077 22.1055 5.77846 20.2947 3.87282C18.6145 2.10667 15.7278 0 11.5 0C7.27224 0 4.38551 2.10667 2.70531 3.87282C0.89453 5.77846 0.0836724 7.66769 0.0505363 7.75077C0.0172175 7.82954 0 7.9148 0 8.00103C0 8.08725 0.0172175 8.17251 0.0505363 8.25128C0.0836724 8.33026 0.89453 10.2226 2.70531 12.1282C4.38551 13.8944 7.27224 16 11.5 16C15.7278 16 18.6145 13.8944 20.2947 12.1282C22.1055 10.2226 22.9163 8.33333 22.9495 8.25128C22.9828 8.17251 23 8.08725 23 8.00103C23 7.9148 22.9828 7.82954 22.9495 7.75077ZM11.5 14.7692C8.44174 14.7692 5.77137 13.5979 3.56198 11.2892C2.63584 10.3205 1.8521 9.21193 1.23661 8C1.85194 6.78826 2.63569 5.67998 3.56198 4.7118C5.77137 2.40205 8.44174 1.23077 11.5 1.23077C14.5583 1.23077 17.2286 2.40205 19.438 4.7118C20.3643 5.67998 21.1481 6.78826 21.7634 8C21.1426 9.25231 18.0297 14.7692 11.5 14.7692ZM11.5 3.28205C10.6133 3.28205 9.74656 3.55875 9.00932 4.07717C8.27208 4.59558 7.69747 5.33243 7.35815 6.19452C7.01884 7.05661 6.93005 8.00523 7.10304 8.92043C7.27602 9.83562 7.70299 10.6763 8.32997 11.3361C8.95694 11.9959 9.75575 12.4453 10.6254 12.6273C11.495 12.8093 12.3964 12.7159 13.2156 12.3588C14.0348 12.0017 14.735 11.397 15.2276 10.6212C15.7202 9.84529 15.9831 8.93312 15.9831 8C15.9816 6.74922 15.5087 5.55014 14.6683 4.66571C13.8279 3.78127 12.6885 3.28368 11.5 3.28205ZM11.5 11.4872C10.8446 11.4872 10.204 11.2827 9.65906 10.8995C9.11414 10.5163 8.68943 9.97168 8.43863 9.33449C8.18783 8.69729 8.12221 7.99613 8.25007 7.31968C8.37793 6.64324 8.69352 6.02188 9.15693 5.53419C9.62035 5.0465 10.2108 4.71438 10.8535 4.57983C11.4963 4.44527 12.1626 4.51433 12.7681 4.77827C13.3735 5.0422 13.8911 5.48916 14.2552 6.06263C14.6193 6.63609 14.8136 7.3103 14.8136 8C14.8136 8.92486 14.4645 9.81184 13.8431 10.4658C13.2216 11.1198 12.3788 11.4872 11.5 11.4872Z" fill="#ACAEC5"/>
</svg>
