<svg width="20" height="16" viewBox="0 0 20 16" fill="none" xmlns="http://www.w3.org/2000/svg">
<path d="M17.607 2.995C17.531 2.697 17.315 2.472 17.068 2.403C16.63 2.28 14.501 2 10.001 2C5.501 2 3.373 2.28 2.932 2.403C2.688 2.471 2.472 2.696 2.395 2.995C2.286 3.419 2.001 5.195 2.001 8C2.001 10.805 2.286 12.58 2.395 13.006C2.471 13.303 2.687 13.528 2.933 13.596C3.373 13.72 5.5 14 10 14C14.5 14 16.629 13.72 17.069 13.597C17.313 13.529 17.529 13.304 17.606 13.005C17.716 12.581 18 10.8 18 8C18 5.2 17.716 3.42 17.607 2.995ZM19.543 2.498C20 4.28 20 8 20 8C20 8 20 11.72 19.543 13.502C19.289 14.487 18.546 15.262 17.605 15.524C15.897 16 10 16 10 16C10 16 4.107 16 2.395 15.524C1.45 15.258 0.708 14.484 0.457 13.502C2.98023e-08 11.72 0 8 0 8C0 8 2.98023e-08 4.28 0.457 2.498C0.711 1.513 1.454 0.738 2.395 0.476C4.108 -1.78814e-07 10.001 0 10.001 0C10.001 0 15.897 -1.78814e-07 17.606 0.476C18.55 0.742 19.293 1.516 19.544 2.498M8.001 11.5V4.5L14.001 8L8.001 11.5Z" fill="#A6A8C1"/>
</svg>
